<svg width="30" height="30" viewBox="0 0 30 30" fill="none" xmlns="http://www.w3.org/2000/svg">
<g clip-path="url(#clip0_230_44)">
<path d="M22.5 2.00984C24.7625 3.31617 26.6446 5.19079 27.96 7.44809C29.2753 9.70539 29.9783 12.2671 29.9992 14.8796C30.0202 17.4921 29.3585 20.0647 28.0796 22.3429C26.8007 24.621 24.9489 26.5256 22.7077 27.8681C20.4664 29.2106 17.9134 29.9445 15.3014 29.997C12.6893 30.0496 10.1089 29.419 7.81544 28.1677C5.52202 26.9164 3.59519 25.0878 2.2257 22.8629C0.856221 20.638 0.0915857 18.0941 0.0075 15.4828L0 14.9998L0.0075 14.5138C0.0915046 11.9233 0.845322 9.39878 2.19546 7.18633C3.5456 4.97388 5.44598 3.14902 7.71134 1.88966C9.9767 0.630308 12.5297 -0.0205662 15.1215 0.000495369C17.7133 0.0215569 20.2554 0.713835 22.5 2.00984ZM20.5605 10.9378C20.3022 10.6796 19.9586 10.5244 19.594 10.5015C19.2295 10.4786 18.8691 10.5895 18.5805 10.8133L18.4395 10.9378L13.5 15.8758L11.5605 13.9378L11.4195 13.8133C11.1309 13.5896 10.7706 13.4789 10.4061 13.5019C10.0417 13.5249 9.69811 13.68 9.43989 13.9382C9.18168 14.1964 9.02652 14.54 9.00353 14.9044C8.98054 15.2689 9.09128 15.6292 9.315 15.9178L9.4395 16.0588L12.4395 19.0588L12.5805 19.1833C12.8436 19.3874 13.167 19.4982 13.5 19.4982C13.833 19.4982 14.1564 19.3874 14.4195 19.1833L14.5605 19.0588L20.5605 13.0588L20.685 12.9178C20.9089 12.6292 21.0198 12.2689 20.9968 11.9043C20.9739 11.5398 20.8188 11.1961 20.5605 10.9378Z" fill="#D7D7D7"/>
</g>
<defs>
<clipPath id="clip0_230_44">
<rect width="30" height="30" fill="white"/>
</clipPath>
</defs>
</svg>
