<svg width="320" height="160" viewBox="0 0 320 160" fill="none" xmlns="http://www.w3.org/2000/svg">
<rect width="320" height="160" rx="5" fill="#FBE4C0"/>
<path d="M35 65C35 48.4315 48.4315 35 65 35H254C270.569 35 284 48.4315 284 65V160H35V65Z" fill="#F4A966"/>
<rect x="83" y="74" width="153" height="47" rx="20" fill="white"/>
<path d="M130.728 107L129.168 102.728H121.728L120.144 107H117.48L124.08 89.768H126.984L133.536 107H130.728ZM125.472 92.648L122.52 100.592H128.376L125.472 92.648ZM142.127 101H138.791V107H136.151V89.768H142.127C145.991 89.768 148.487 91.736 148.487 95.336C148.487 98.96 145.991 101 142.127 101ZM142.103 92H138.791V98.768H142.103C144.431 98.768 145.847 97.496 145.847 95.36C145.847 93.224 144.431 92 142.103 92ZM157.344 101H154.008V107H151.368V89.768H157.344C161.208 89.768 163.704 91.736 163.704 95.336C163.704 98.96 161.208 101 157.344 101ZM157.32 92H154.008V98.768H157.32C159.648 98.768 161.064 97.496 161.064 95.36C161.064 93.224 159.648 92 157.32 92ZM177.024 107H166.584V89.768H169.224V104.624H177.024V107ZM184.992 100.544V107H182.328V100.544L176.136 89.768H179.016L183.744 98.072L188.52 89.768H191.208L184.992 100.544Z" fill="#2C2C2C" fill-opacity="0.9"/>
</svg>
