<svg width="320" height="160" viewBox="0 0 320 160" fill="none" xmlns="http://www.w3.org/2000/svg">
<rect width="320" height="160" rx="5" fill="url(#paint0_linear_66_410)"/>
<rect x="17" y="24" width="281" height="100" rx="10" fill="#FE7B69"/>
<rect x="36" y="39" width="244" height="70" rx="5" fill="white"/>
<path d="M58.278 63.234V67H56.724V63.234L53.112 56.948H54.792L57.55 61.792L60.336 56.948H61.904L58.278 63.234ZM64.8416 67.14C62.7416 67.14 61.2016 65.488 61.2016 63.29C61.2016 61.092 62.7416 59.44 64.8416 59.44C66.9416 59.44 68.4816 61.092 68.4816 63.29C68.4816 65.488 66.9416 67.14 64.8416 67.14ZM64.8416 65.894C66.0596 65.894 67.0256 64.914 67.0256 63.29C67.0256 61.666 66.0596 60.7 64.8416 60.7C63.6236 60.7 62.6716 61.666 62.6716 63.29C62.6716 64.914 63.6236 65.894 64.8416 65.894ZM74.627 63.948V59.58H76.041V67H74.725V65.824C74.333 66.594 73.465 67.14 72.457 67.14C70.959 67.14 69.923 66.258 69.923 64.354V59.58H71.337V64.074C71.337 65.362 71.981 65.894 72.905 65.894C73.857 65.894 74.627 65.11 74.627 63.948ZM79.4888 63.206V67H78.0748V59.58H79.3908V61.148C79.9088 60.126 81.0288 59.482 82.2468 59.482V60.952C80.6508 60.868 79.4888 61.568 79.4888 63.206ZM93.5156 63.29C93.5156 65.53 92.2276 67.14 90.2396 67.14C89.2316 67.14 88.3776 66.636 87.8456 65.74V69.702H86.4316V59.58H87.7476V60.938C88.2796 59.986 89.1896 59.44 90.2396 59.44C92.2136 59.44 93.5156 61.05 93.5156 63.29ZM92.0456 63.29C92.0456 61.624 91.1636 60.686 89.9456 60.686C88.7696 60.686 87.8456 61.624 87.8456 63.29C87.8456 64.928 88.7556 65.88 89.9456 65.88C91.1636 65.88 92.0456 64.956 92.0456 63.29ZM96.4331 63.206V67H95.0191V59.58H96.3351V61.148C96.8531 60.126 97.9731 59.482 99.1911 59.482V60.952C97.5951 60.868 96.4331 61.568 96.4331 63.206ZM103.461 67.14C101.361 67.14 99.8208 65.488 99.8208 63.29C99.8208 61.092 101.361 59.44 103.461 59.44C105.561 59.44 107.101 61.092 107.101 63.29C107.101 65.488 105.561 67.14 103.461 67.14ZM103.461 65.894C104.679 65.894 105.645 64.914 105.645 63.29C105.645 61.666 104.679 60.7 103.461 60.7C102.243 60.7 101.291 61.666 101.291 63.29C101.291 64.914 102.243 65.894 103.461 65.894ZM110.493 67H109.079V60.784H107.441V59.58H109.079V59.034C109.079 57.606 109.849 56.822 111.249 56.822C111.669 56.822 112.005 56.892 112.285 57.004V58.152C112.061 58.054 111.809 58.026 111.557 58.026C110.885 58.026 110.493 58.334 110.493 59.048V59.58H112.565V60.784H110.493V67ZM115.351 57.858C115.351 58.39 114.931 58.796 114.329 58.796C113.727 58.796 113.307 58.39 113.307 57.858C113.307 57.312 113.727 56.92 114.329 56.92C114.931 56.92 115.351 57.312 115.351 57.858ZM115.043 67H113.629V59.58H115.043V67ZM118.505 67H117.077V56.948H118.505V67ZM123.589 67.14C121.447 67.14 120.005 65.586 120.005 63.248C120.005 61.05 121.503 59.44 123.547 59.44C125.759 59.44 127.229 61.232 126.977 63.64H121.447C121.559 65.152 122.315 66.034 123.561 66.034C124.611 66.034 125.339 65.46 125.577 64.494H126.977C126.613 66.146 125.339 67.14 123.589 67.14ZM123.519 60.504C122.385 60.504 121.615 61.316 121.461 62.702H125.479C125.409 61.33 124.667 60.504 123.519 60.504ZM132.961 62.814V67H131.547V56.948H132.961V60.77C133.451 59.972 134.207 59.44 135.229 59.44C136.755 59.44 137.763 60.42 137.763 62.198V67H136.349V62.674C136.349 61.4 135.789 60.686 134.739 60.686C133.773 60.686 132.961 61.498 132.961 62.814ZM144.204 67V65.852C143.742 66.678 142.916 67.14 141.824 67.14C140.284 67.14 139.276 66.258 139.276 64.9C139.276 63.444 140.438 62.688 142.65 62.688C143.084 62.688 143.434 62.702 144.036 62.772V62.226C144.036 61.162 143.462 60.56 142.482 60.56C141.446 60.56 140.816 61.176 140.774 62.212H139.486C139.556 60.546 140.746 59.44 142.482 59.44C144.316 59.44 145.38 60.476 145.38 62.24V67H144.204ZM140.62 64.858C140.62 65.628 141.194 66.132 142.104 66.132C143.294 66.132 144.036 65.39 144.036 64.256V63.654C143.49 63.584 143.098 63.57 142.734 63.57C141.32 63.57 140.62 63.99 140.62 64.858ZM153.221 64.788C153.221 66.244 152.087 67.14 150.113 67.14C148.153 67.14 146.991 66.174 146.851 64.578H148.209C148.265 65.502 149.007 66.076 150.141 66.076C151.135 66.076 151.793 65.726 151.793 65.026C151.793 64.41 151.415 64.144 150.491 63.962L149.287 63.738C147.915 63.472 147.145 62.772 147.145 61.652C147.145 60.35 148.279 59.44 150.001 59.44C151.779 59.44 152.983 60.392 153.109 61.918H151.751C151.667 61.022 151.009 60.504 150.015 60.504C149.119 60.504 148.517 60.882 148.517 61.526C148.517 62.128 148.895 62.408 149.791 62.576L151.051 62.814C152.521 63.08 153.221 63.724 153.221 64.788ZM164.914 63.29C164.914 65.516 163.626 67.14 161.624 67.14C160.574 67.14 159.678 66.608 159.146 65.67V67H157.83V56.948H159.244V60.854C159.762 59.944 160.616 59.44 161.624 59.44C163.612 59.44 164.914 61.036 164.914 63.29ZM163.444 63.29C163.444 61.61 162.562 60.686 161.344 60.686C160.168 60.686 159.244 61.596 159.244 63.262C159.244 64.9 160.14 65.88 161.344 65.88C162.562 65.88 163.444 64.942 163.444 63.29ZM169.47 67.14C167.328 67.14 165.886 65.586 165.886 63.248C165.886 61.05 167.384 59.44 169.428 59.44C171.64 59.44 173.11 61.232 172.858 63.64H167.328C167.44 65.152 168.196 66.034 169.442 66.034C170.492 66.034 171.22 65.46 171.458 64.494H172.858C172.494 66.146 171.22 67.14 169.47 67.14ZM169.4 60.504C168.266 60.504 167.496 61.316 167.342 62.702H171.36C171.29 61.33 170.548 60.504 169.4 60.504ZM177.347 67.14C175.205 67.14 173.763 65.586 173.763 63.248C173.763 61.05 175.261 59.44 177.305 59.44C179.517 59.44 180.987 61.232 180.735 63.64H175.205C175.317 65.152 176.073 66.034 177.319 66.034C178.369 66.034 179.097 65.46 179.335 64.494H180.735C180.371 66.146 179.097 67.14 177.347 67.14ZM177.277 60.504C176.143 60.504 175.373 61.316 175.219 62.702H179.237C179.167 61.33 178.425 60.504 177.277 60.504ZM183.722 62.814V67H182.308V59.58H183.624V60.812C184.128 59.986 184.968 59.44 185.99 59.44C187.516 59.44 188.524 60.42 188.524 62.198V67H187.11V62.674C187.11 61.4 186.55 60.686 185.5 60.686C184.534 60.686 183.722 61.498 183.722 62.814ZM199.348 64.788C199.348 66.244 198.214 67.14 196.24 67.14C194.28 67.14 193.118 66.174 192.978 64.578H194.336C194.392 65.502 195.134 66.076 196.268 66.076C197.262 66.076 197.92 65.726 197.92 65.026C197.92 64.41 197.542 64.144 196.618 63.962L195.414 63.738C194.042 63.472 193.272 62.772 193.272 61.652C193.272 60.35 194.406 59.44 196.128 59.44C197.906 59.44 199.11 60.392 199.236 61.918H197.878C197.794 61.022 197.136 60.504 196.142 60.504C195.246 60.504 194.644 60.882 194.644 61.526C194.644 62.128 195.022 62.408 195.918 62.576L197.178 62.814C198.648 63.08 199.348 63.724 199.348 64.788ZM202.375 62.814V67H200.961V56.948H202.375V60.77C202.865 59.972 203.621 59.44 204.643 59.44C206.169 59.44 207.177 60.42 207.177 62.198V67H205.763V62.674C205.763 61.4 205.203 60.686 204.153 60.686C203.187 60.686 202.375 61.498 202.375 62.814ZM212.233 67.14C210.133 67.14 208.593 65.488 208.593 63.29C208.593 61.092 210.133 59.44 212.233 59.44C214.333 59.44 215.873 61.092 215.873 63.29C215.873 65.488 214.333 67.14 212.233 67.14ZM212.233 65.894C213.451 65.894 214.417 64.914 214.417 63.29C214.417 61.666 213.451 60.7 212.233 60.7C211.015 60.7 210.063 61.666 210.063 63.29C210.063 64.914 211.015 65.894 212.233 65.894ZM218.799 63.206V67H217.385V59.58H218.701V61.148C219.219 60.126 220.339 59.482 221.557 59.482V60.952C219.961 60.868 218.799 61.568 218.799 63.206ZM227.383 65.628V66.874C226.949 67.07 226.571 67.14 226.123 67.14C224.751 67.14 223.799 66.398 223.799 64.76V60.784H222.161V59.58H223.799V57.382H225.213V59.58H227.453V60.784H225.213V64.438C225.213 65.46 225.703 65.824 226.459 65.824C226.795 65.824 227.089 65.768 227.383 65.628ZM230.3 67H228.872V56.948H230.3V67ZM234.055 57.858C234.055 58.39 233.635 58.796 233.033 58.796C232.431 58.796 231.997 58.39 231.997 57.858C231.997 57.312 232.431 56.92 233.033 56.92C233.635 56.92 234.055 57.312 234.055 57.858ZM233.747 67H232.333V59.58H233.747V67ZM241.66 64.788C241.66 66.244 240.526 67.14 238.552 67.14C236.592 67.14 235.43 66.174 235.29 64.578H236.648C236.704 65.502 237.446 66.076 238.58 66.076C239.574 66.076 240.232 65.726 240.232 65.026C240.232 64.41 239.854 64.144 238.93 63.962L237.726 63.738C236.354 63.472 235.584 62.772 235.584 61.652C235.584 60.35 236.718 59.44 238.44 59.44C240.218 59.44 241.422 60.392 241.548 61.918H240.19C240.106 61.022 239.448 60.504 238.454 60.504C237.558 60.504 236.956 60.882 236.956 61.526C236.956 62.128 237.334 62.408 238.23 62.576L239.49 62.814C240.96 63.08 241.66 63.724 241.66 64.788ZM247.364 65.628V66.874C246.93 67.07 246.552 67.14 246.104 67.14C244.732 67.14 243.78 66.398 243.78 64.76V60.784H242.142V59.58H243.78V57.382H245.194V59.58H247.434V60.784H245.194V64.438C245.194 65.46 245.684 65.824 246.44 65.824C246.776 65.824 247.07 65.768 247.364 65.628ZM251.7 67.14C249.558 67.14 248.116 65.586 248.116 63.248C248.116 61.05 249.614 59.44 251.658 59.44C253.87 59.44 255.34 61.232 255.088 63.64H249.558C249.67 65.152 250.426 66.034 251.672 66.034C252.722 66.034 253.45 65.46 253.688 64.494H255.088C254.724 66.146 253.45 67.14 251.7 67.14ZM251.63 60.504C250.496 60.504 249.726 61.316 249.572 62.702H253.59C253.52 61.33 252.778 60.504 251.63 60.504ZM255.993 63.29C255.993 61.036 257.281 59.44 259.283 59.44C260.277 59.44 261.145 59.944 261.663 60.854V56.948H263.077V67H261.761V65.67C261.229 66.608 260.333 67.14 259.283 67.14C257.281 67.14 255.993 65.516 255.993 63.29ZM257.463 63.29C257.463 64.942 258.331 65.88 259.563 65.88C260.767 65.88 261.663 64.9 261.663 63.262C261.663 61.596 260.739 60.686 259.563 60.686C258.331 60.686 257.463 61.61 257.463 63.29Z" fill="black" fill-opacity="0.8"/>
<rect x="53" y="80" width="183" height="12" rx="5" fill="#FFB295" fill-opacity="0.5"/>
<defs>
<linearGradient id="paint0_linear_66_410" x1="160" y1="0" x2="160" y2="160" gradientUnits="userSpaceOnUse">
<stop stop-color="#FFCFD9"/>
<stop offset="1" stop-color="#FFCFD9" stop-opacity="0"/>
</linearGradient>
</defs>
</svg>
