<svg width="493" height="632" viewBox="0 0 493 632" fill="none" xmlns="http://www.w3.org/2000/svg">
<rect width="559" height="632" rx="5" fill="white"/>
<rect x="0.5" y="0.5" width="558" height="631" rx="4.5" stroke="#D3B4ED" stroke-opacity="0.25"/>
<path d="M0 5C0 2.23858 2.23858 0 5 0H554C556.761 0 559 2.23858 559 5V80H0V5Z" fill="#4ED1AB"/>
<path d="M26.5137 54.216C22.7937 54.216 20.2977 51.672 20.2977 47.688C20.2977 43.776 22.6737 41.112 26.5137 41.112C30.2097 41.112 32.7057 43.632 32.7057 47.664C32.7057 51.552 30.3297 54.216 26.5137 54.216ZM26.5137 52.152C28.7217 52.152 30.1857 50.544 30.1857 47.664C30.1857 44.808 28.7937 43.152 26.5137 43.152C24.3057 43.152 22.8177 44.76 22.8177 47.688C22.8177 50.52 24.2577 52.152 26.5137 52.152ZM36.2786 54V43.32H33.9746V41.304H36.2786V39.432C36.2786 37.512 37.5266 36.504 39.5426 36.504H41.7986V38.232H40.1906C39.0626 38.232 38.7506 38.784 38.7506 39.624V41.304H43.5746V39.432C43.5746 37.512 44.7986 36.504 46.8146 36.504H49.0946V38.232H47.4626C46.3346 38.232 46.0466 38.784 46.0466 39.624V41.304H48.8306V43.32H46.0466V54H43.5746V43.32H38.7506V54H36.2786ZM55.8854 54.216C52.1654 54.216 49.7174 51.6 49.7174 47.664C49.7174 43.728 52.1654 41.112 55.9814 41.112C59.0534 41.112 61.3094 42.96 61.5014 45.696H59.1014C58.8134 44.04 57.5414 43.176 55.9094 43.176C53.5574 43.176 52.2374 44.976 52.2374 47.688C52.2374 50.544 53.6774 52.152 55.8854 52.152C57.7334 52.152 58.9574 51.072 59.1494 49.464H61.5494C61.3574 52.344 59.0534 54.216 55.8854 54.216ZM68.498 54.216C65.402 54.216 63.314 51.888 63.314 47.64C63.314 43.392 65.402 41.088 68.498 41.088C70.634 41.088 72.218 42.168 72.818 43.8H72.962L73.058 41.304H75.434V54H72.962V51.48H72.818C72.218 53.112 70.634 54.216 68.498 54.216ZM69.362 52.176C71.714 52.176 72.938 50.328 72.938 48.36V46.92C72.938 44.976 71.714 43.104 69.362 43.104C67.25 43.104 65.858 44.64 65.858 47.64C65.858 50.616 67.25 52.176 69.362 52.176ZM79.0167 54V41.304H81.3687L81.4647 43.824H81.6087C82.3287 42.024 83.9607 41.112 85.8087 41.112C87.6807 41.112 89.2647 41.928 89.9127 44.088H90.1047C90.8007 42.12 92.5287 41.112 94.5687 41.112C97.0887 41.112 98.9607 42.576 98.9607 46.464V54H96.5127V46.968C96.5127 44.376 95.6247 43.152 93.6327 43.152C91.5447 43.152 90.2247 44.88 90.2247 47.064V54H87.7527V46.968C87.7527 44.376 86.8647 43.152 84.8967 43.152C82.7847 43.152 81.4647 44.88 81.4647 47.064V54H79.0167ZM102.41 58.008V41.304H104.786L104.882 43.8H105.026C105.65 42.192 107.234 41.088 109.346 41.088C112.442 41.088 114.53 43.416 114.53 47.664C114.53 51.912 112.442 54.216 109.346 54.216C107.234 54.216 105.65 53.136 105.026 51.504H104.882V58.008H102.41ZM108.482 52.176C110.594 52.176 112.01 50.64 112.01 47.664C112.01 44.664 110.594 43.128 108.482 43.128C106.13 43.128 104.906 44.976 104.906 46.944V48.36C104.906 50.328 106.13 52.176 108.482 52.176ZM121.712 54.216C118.832 54.216 117.152 52.488 117.152 49.128V41.304H119.624V48.504C119.624 50.856 120.488 52.152 122.624 52.152C124.712 52.152 126.104 50.496 126.104 48.168V41.304H128.576V54H126.224L126.104 51.432H125.96C125.336 53.184 123.68 54.216 121.712 54.216ZM136.481 54.24C133.145 54.24 131.153 52.536 131.153 50.016H133.601C133.601 51.672 134.801 52.44 136.529 52.44C138.281 52.44 139.217 51.744 139.217 50.568C139.217 49.248 138.377 48.888 136.265 48.576C133.073 48.12 131.489 47.28 131.489 44.904C131.489 42.6 133.505 41.064 136.505 41.064C139.553 41.064 141.425 42.624 141.473 45.048H139.049C139.025 43.512 138.017 42.888 136.457 42.888C134.897 42.888 133.961 43.584 133.961 44.664C133.961 45.912 134.921 46.296 137.153 46.608C140.105 47.016 141.713 47.856 141.713 50.352C141.713 52.848 139.625 54.24 136.481 54.24ZM144.442 54V36.504H146.89V43.824H147.034C147.778 42.024 149.458 41.112 151.33 41.112C153.922 41.112 155.866 42.576 155.866 46.464V54H153.394V46.968C153.394 44.376 152.458 43.152 150.442 43.152C148.258 43.152 146.89 44.88 146.89 47.064V54H144.442ZM159.328 39.36V36.504H161.8V39.36H159.328ZM159.328 54V41.304H161.8V54H159.328ZM165.354 54V41.304H167.562L167.682 43.56H167.802C168.354 41.928 169.794 41.136 171.474 41.136C171.762 41.136 172.002 41.16 172.218 41.184V43.512C172.026 43.488 171.738 43.488 171.45 43.488C169.194 43.488 167.922 44.664 167.802 46.752V54H165.354ZM179.162 54.216C175.418 54.216 173.258 51.648 173.258 47.712C173.258 43.68 175.442 41.112 179.09 41.112C183.098 41.112 185.018 44.016 184.706 48.144H175.682C175.706 50.928 177.074 52.32 179.162 52.32C180.842 52.32 181.994 51.432 182.282 50.112H184.634C184.298 52.68 182.066 54.216 179.162 54.216ZM179.09 43.008C177.146 43.008 175.898 44.208 175.706 46.464H182.282C182.21 44.064 180.914 43.008 179.09 43.008Z" fill="#FDFDFC"/>
<path d="M34.9322 130L33.6322 126.44H27.4322L26.1122 130H23.8922L29.3922 115.64H31.8122L37.2722 130H34.9322ZM30.5522 118.04L28.0922 124.66H32.9722L30.5522 118.04ZM45.3208 125.64V119.4H47.3408V130H45.4608V128.32C44.9008 129.42 43.6608 130.2 42.2208 130.2C40.0808 130.2 38.6008 128.94 38.6008 126.22V119.4H40.6208V125.82C40.6208 127.66 41.5408 128.42 42.8608 128.42C44.2208 128.42 45.3208 127.3 45.3208 125.64ZM54.3861 134.08C51.6061 134.08 49.8061 132.6 49.6861 130.2H51.6461C51.7661 131.68 52.7261 132.48 54.3661 132.48C56.1861 132.48 57.1461 131.5 57.1461 129.68V127.76C56.5461 129.04 55.3461 129.78 53.9061 129.78C51.2661 129.78 49.3861 127.6 49.3861 124.48C49.3861 121.32 51.1861 119.2 53.8461 119.2C55.3661 119.2 56.5661 119.94 57.2861 121.28V119.4H59.1661V129.64C59.1661 132.42 57.3861 134.08 54.3861 134.08ZM51.4261 124.48C51.4261 126.68 52.5061 128.02 54.2661 128.02C55.9861 128.02 57.1461 126.64 57.1461 124.54C57.1461 122.34 56.0061 120.94 54.2661 120.94C52.5261 120.94 51.4261 122.3 51.4261 124.48ZM68.5825 125.64V119.4H70.6025V130H68.7225V128.32C68.1625 129.42 66.9225 130.2 65.4825 130.2C63.3425 130.2 61.8625 128.94 61.8625 126.22V119.4H63.8825V125.82C63.8825 127.66 64.8025 128.42 66.1225 128.42C67.4825 128.42 68.5825 127.3 68.5825 125.64ZM81.8078 126.84C81.8078 128.92 80.1878 130.2 77.3678 130.2C74.5678 130.2 72.9078 128.82 72.7078 126.54H74.6478C74.7278 127.86 75.7878 128.68 77.4078 128.68C78.8278 128.68 79.7678 128.18 79.7678 127.18C79.7678 126.3 79.2278 125.92 77.9078 125.66L76.1878 125.34C74.2278 124.96 73.1278 123.96 73.1278 122.36C73.1278 120.5 74.7478 119.2 77.2078 119.2C79.7478 119.2 81.4678 120.56 81.6478 122.74H79.7078C79.5878 121.46 78.6478 120.72 77.2278 120.72C75.9478 120.72 75.0878 121.26 75.0878 122.18C75.0878 123.04 75.6278 123.44 76.9078 123.68L78.7078 124.02C80.8078 124.4 81.8078 125.32 81.8078 126.84ZM89.8566 128.04V129.82C89.2366 130.1 88.6966 130.2 88.0566 130.2C86.0966 130.2 84.7366 129.14 84.7366 126.8V121.12H82.3966V119.4H84.7366V116.26H86.7566V119.4H89.9566V121.12H86.7566V126.34C86.7566 127.8 87.4566 128.32 88.5366 128.32C89.0166 128.32 89.4366 128.24 89.8566 128.04ZM94.8197 129.14C94.8197 131.04 93.3197 132.52 91.1197 132.56V131.42C92.4197 131.38 93.2997 130.68 93.4197 129.7C93.2397 129.76 93.1197 129.78 92.9797 129.78C92.2197 129.78 91.6597 129.16 91.6597 128.42C91.6597 127.56 92.2997 127 93.1197 127C94.2197 127 94.8197 127.8 94.8197 129.14ZM109.835 128.2V130H101.095V128.84L105.315 124.28C106.915 122.54 107.535 121.6 107.535 120.38C107.535 119.04 106.595 118.1 105.215 118.1C103.715 118.1 102.715 119.08 102.715 120.58H100.735C100.735 118.08 102.615 116.28 105.295 116.28C107.815 116.28 109.655 117.92 109.655 120.14C109.655 121.68 109.075 122.76 106.855 125.12L104.135 128.2H109.835ZM111.699 123.26C111.699 118.78 113.479 116.28 116.679 116.28C119.879 116.28 121.679 118.78 121.679 123.26C121.679 127.74 119.919 130.2 116.679 130.2C113.439 130.2 111.699 127.74 111.699 123.26ZM113.779 123.26C113.779 126.6 114.779 128.38 116.679 128.38C118.579 128.38 119.599 126.62 119.599 123.26C119.599 119.88 118.579 118.1 116.679 118.1C114.819 118.1 113.779 119.88 113.779 123.26ZM132.432 128.2V130H123.692V128.84L127.912 124.28C129.512 122.54 130.132 121.6 130.132 120.38C130.132 119.04 129.192 118.1 127.812 118.1C126.312 118.1 125.312 119.08 125.312 120.58H123.332C123.332 118.08 125.212 116.28 127.892 116.28C130.412 116.28 132.252 117.92 132.252 120.14C132.252 121.68 131.672 122.76 129.452 125.12L126.732 128.2H132.432ZM143.785 127.02H141.945V130H139.925V127.02H133.425V125.6L140.385 116.48H141.945V125.26H143.785V127.02ZM135.685 125.26H139.925V119.54L135.685 125.26Z" fill="#4ED1AB"/>
<rect x="29" y="555" width="127" height="40" rx="5" fill="#4ED1AB" fill-opacity="0.6"/>
<rect x="313.5" y="172.5" width="49" height="49" rx="4.5" fill="white" stroke="#D7D7D7"/>
<rect x="384" y="172" width="50" height="50" rx="5" fill="#4ED1AB" fill-opacity="0.3"/>
<rect x="384.5" y="172.5" width="49" height="49" rx="4.5" stroke="#4ED1AB" stroke-opacity="0.3"/>
<rect x="455.5" y="172.5" width="49" height="49" rx="4.5" fill="white" stroke="#D7D7D7"/>
<rect x="29.5" y="246.5" width="49" height="49" rx="4.5" fill="white" stroke="#D7D7D7"/>
<rect x="100" y="246" width="50" height="50" rx="5" fill="#4ED1AB" fill-opacity="0.3"/>
<rect x="171.5" y="246.5" width="49" height="49" rx="4.5" fill="white" stroke="#D7D7D7"/>
<rect x="242.5" y="246.5" width="49" height="49" rx="4.5" fill="white" stroke="#D7D7D7"/>
<rect x="313.5" y="246.5" width="49" height="49" rx="4.5" fill="white" stroke="#D7D7D7"/>
<rect x="384" y="246" width="50" height="50" rx="5" fill="#4ED1AB" fill-opacity="0.3"/>
<rect x="455.5" y="246.5" width="49" height="49" rx="4.5" fill="white" stroke="#D7D7D7"/>
<rect x="29.5" y="468.5" width="49" height="49" rx="4.5" fill="white" stroke="#D7D7D7"/>
<rect x="100" y="468" width="50" height="50" rx="5" fill="#4ED1AB" fill-opacity="0.3"/>
<rect x="171.5" y="468.5" width="49" height="49" rx="4.5" fill="white" stroke="#D7D7D7"/>
<rect x="242.5" y="468.5" width="49" height="49" rx="4.5" fill="white" stroke="#D7D7D7"/>
<rect x="313.5" y="468.5" width="49" height="49" rx="4.5" fill="white" stroke="#D7D7D7"/>
<rect x="384.5" y="468.5" width="49" height="49" rx="4.5" fill="white" stroke="#D7D7D7"/>
<rect x="455.5" y="468.5" width="49" height="49" rx="4.5" fill="white" stroke="#D7D7D7"/>
<rect x="29.5" y="320.5" width="49" height="49" rx="4.5" fill="white" stroke="#D7D7D7"/>
<rect x="100.5" y="320.5" width="49" height="49" rx="4.5" fill="white" stroke="#D7D7D7"/>
<rect x="171.5" y="320.5" width="49" height="49" rx="4.5" fill="white" stroke="#D7D7D7"/>
<rect x="242.5" y="320.5" width="49" height="49" rx="4.5" fill="white" stroke="#D7D7D7"/>
<rect x="313.5" y="320.5" width="49" height="49" rx="4.5" fill="white" stroke="#D7D7D7"/>
<rect x="384" y="320" width="50" height="50" rx="5" fill="#4ED1AB" fill-opacity="0.3"/>
<rect x="455.5" y="320.5" width="49" height="49" rx="4.5" fill="white" stroke="#D7D7D7"/>
<rect x="29.5" y="394.5" width="49" height="49" rx="4.5" fill="white" stroke="#D7D7D7"/>
<rect x="100" y="394" width="50" height="50" rx="5" fill="#4ED1AB" fill-opacity="0.3"/>
<rect x="171.5" y="394.5" width="49" height="49" rx="4.5" fill="white" stroke="#D7D7D7"/>
<rect x="242.5" y="394.5" width="49" height="49" rx="4.5" fill="white" stroke="#D7D7D7"/>
<rect x="313.5" y="394.5" width="49" height="49" rx="4.5" fill="white" stroke="#D7D7D7"/>
<rect x="384.5" y="394.5" width="49" height="49" rx="4.5" fill="white" stroke="#D7D7D7"/>
<rect x="455.5" y="394.5" width="49" height="49" rx="4.5" fill="white" stroke="#D7D7D7"/>
</svg>
