<svg width="493" height="558" viewBox="0 0 493 558" fill="none" xmlns="http://www.w3.org/2000/svg">
<rect width="559" height="558" rx="5" fill="white"/>
<rect x="0.5" y="0.5" width="558" height="557" rx="4.5" stroke="#D3B4ED" stroke-opacity="0.25"/>
<path d="M0 5C0 2.23858 2.23858 0 5 0H554C556.761 0 559 2.23858 559 5V80H0V5Z" fill="#A966FF"/>
<path d="M26.5137 54.216C22.7937 54.216 20.2977 51.672 20.2977 47.688C20.2977 43.776 22.6737 41.112 26.5137 41.112C30.2097 41.112 32.7057 43.632 32.7057 47.664C32.7057 51.552 30.3297 54.216 26.5137 54.216ZM26.5137 52.152C28.7217 52.152 30.1857 50.544 30.1857 47.664C30.1857 44.808 28.7937 43.152 26.5137 43.152C24.3057 43.152 22.8177 44.76 22.8177 47.688C22.8177 50.52 24.2577 52.152 26.5137 52.152ZM36.2786 54V43.32H33.9746V41.304H36.2786V39.432C36.2786 37.512 37.5266 36.504 39.5426 36.504H41.7986V38.232H40.1906C39.0626 38.232 38.7506 38.784 38.7506 39.624V41.304H43.5746V39.432C43.5746 37.512 44.7986 36.504 46.8146 36.504H49.0946V38.232H47.4626C46.3346 38.232 46.0466 38.784 46.0466 39.624V41.304H48.8306V43.32H46.0466V54H43.5746V43.32H38.7506V54H36.2786ZM55.8854 54.216C52.1654 54.216 49.7174 51.6 49.7174 47.664C49.7174 43.728 52.1654 41.112 55.9814 41.112C59.0534 41.112 61.3094 42.96 61.5014 45.696H59.1014C58.8134 44.04 57.5414 43.176 55.9094 43.176C53.5574 43.176 52.2374 44.976 52.2374 47.688C52.2374 50.544 53.6774 52.152 55.8854 52.152C57.7334 52.152 58.9574 51.072 59.1494 49.464H61.5494C61.3574 52.344 59.0534 54.216 55.8854 54.216ZM68.498 54.216C65.402 54.216 63.314 51.888 63.314 47.64C63.314 43.392 65.402 41.088 68.498 41.088C70.634 41.088 72.218 42.168 72.818 43.8H72.962L73.058 41.304H75.434V54H72.962V51.48H72.818C72.218 53.112 70.634 54.216 68.498 54.216ZM69.362 52.176C71.714 52.176 72.938 50.328 72.938 48.36V46.92C72.938 44.976 71.714 43.104 69.362 43.104C67.25 43.104 65.858 44.64 65.858 47.64C65.858 50.616 67.25 52.176 69.362 52.176ZM79.0167 54V41.304H81.3687L81.4647 43.824H81.6087C82.3287 42.024 83.9607 41.112 85.8087 41.112C87.6807 41.112 89.2647 41.928 89.9127 44.088H90.1047C90.8007 42.12 92.5287 41.112 94.5687 41.112C97.0887 41.112 98.9607 42.576 98.9607 46.464V54H96.5127V46.968C96.5127 44.376 95.6247 43.152 93.6327 43.152C91.5447 43.152 90.2247 44.88 90.2247 47.064V54H87.7527V46.968C87.7527 44.376 86.8647 43.152 84.8967 43.152C82.7847 43.152 81.4647 44.88 81.4647 47.064V54H79.0167ZM102.41 58.008V41.304H104.786L104.882 43.8H105.026C105.65 42.192 107.234 41.088 109.346 41.088C112.442 41.088 114.53 43.416 114.53 47.664C114.53 51.912 112.442 54.216 109.346 54.216C107.234 54.216 105.65 53.136 105.026 51.504H104.882V58.008H102.41ZM108.482 52.176C110.594 52.176 112.01 50.64 112.01 47.664C112.01 44.664 110.594 43.128 108.482 43.128C106.13 43.128 104.906 44.976 104.906 46.944V48.36C104.906 50.328 106.13 52.176 108.482 52.176ZM121.712 54.216C118.832 54.216 117.152 52.488 117.152 49.128V41.304H119.624V48.504C119.624 50.856 120.488 52.152 122.624 52.152C124.712 52.152 126.104 50.496 126.104 48.168V41.304H128.576V54H126.224L126.104 51.432H125.96C125.336 53.184 123.68 54.216 121.712 54.216ZM136.481 54.24C133.145 54.24 131.153 52.536 131.153 50.016H133.601C133.601 51.672 134.801 52.44 136.529 52.44C138.281 52.44 139.217 51.744 139.217 50.568C139.217 49.248 138.377 48.888 136.265 48.576C133.073 48.12 131.489 47.28 131.489 44.904C131.489 42.6 133.505 41.064 136.505 41.064C139.553 41.064 141.425 42.624 141.473 45.048H139.049C139.025 43.512 138.017 42.888 136.457 42.888C134.897 42.888 133.961 43.584 133.961 44.664C133.961 45.912 134.921 46.296 137.153 46.608C140.105 47.016 141.713 47.856 141.713 50.352C141.713 52.848 139.625 54.24 136.481 54.24ZM144.442 54V36.504H146.89V43.824H147.034C147.778 42.024 149.458 41.112 151.33 41.112C153.922 41.112 155.866 42.576 155.866 46.464V54H153.394V46.968C153.394 44.376 152.458 43.152 150.442 43.152C148.258 43.152 146.89 44.88 146.89 47.064V54H144.442ZM159.328 39.36V36.504H161.8V39.36H159.328ZM159.328 54V41.304H161.8V54H159.328ZM165.354 54V41.304H167.562L167.682 43.56H167.802C168.354 41.928 169.794 41.136 171.474 41.136C171.762 41.136 172.002 41.16 172.218 41.184V43.512C172.026 43.488 171.738 43.488 171.45 43.488C169.194 43.488 167.922 44.664 167.802 46.752V54H165.354ZM179.162 54.216C175.418 54.216 173.258 51.648 173.258 47.712C173.258 43.68 175.442 41.112 179.09 41.112C183.098 41.112 185.018 44.016 184.706 48.144H175.682C175.706 50.928 177.074 52.32 179.162 52.32C180.842 52.32 181.994 51.432 182.282 50.112H184.634C184.298 52.68 182.066 54.216 179.162 54.216ZM179.09 43.008C177.146 43.008 175.898 44.208 175.706 46.464H182.282C182.21 44.064 180.914 43.008 179.09 43.008Z" fill="#FDFDFC"/>
<rect x="411" y="135" width="30" height="30" rx="15" fill="white"/>
<rect x="411.5" y="135.5" width="29" height="29" rx="14.5" stroke="#E7E7E3" stroke-opacity="0.9"/>
<line x1="147.994" y1="148.5" x2="410.994" y2="147.444" stroke="#D3B4ED" stroke-opacity="0.25" stroke-width="3"/>
<rect x="118" y="134" width="30" height="30" rx="15" fill="#A966FF"/>
<path d="M359.623 347.283C359.525 346.064 358.971 344.926 358.072 344.096C357.172 343.267 355.994 342.806 354.77 342.805H334.805V225.435C334.8 221.725 333.385 218.155 330.847 215.45C328.308 212.744 324.836 211.105 321.134 210.864C320.953 210.843 320.771 210.832 320.589 210.831H301.874V188.917C301.88 188.273 301.758 187.635 301.516 187.039C301.274 186.442 300.915 185.9 300.462 185.443C300.009 184.986 299.47 184.623 298.876 184.375C298.282 184.128 297.645 184 297.001 184C296.357 184 295.72 184.128 295.126 184.375C294.532 184.623 293.993 184.986 293.54 185.443C293.086 185.9 292.728 186.442 292.486 187.039C292.244 187.635 292.122 188.273 292.128 188.917V237.994C292.122 238.638 292.244 239.276 292.486 239.873C292.728 240.469 293.086 241.011 293.54 241.469C293.993 241.926 294.532 242.289 295.126 242.536C295.72 242.784 296.357 242.911 297.001 242.911C297.645 242.911 298.282 242.784 298.876 242.536C299.47 242.289 300.009 241.926 300.462 241.469C300.915 241.011 301.274 240.469 301.516 239.873C301.758 239.276 301.88 238.638 301.874 237.994V220.576H320.201C321.489 220.578 322.724 221.09 323.634 222.001C324.545 222.912 325.058 224.147 325.059 225.435V342.805H259.36C258.133 342.806 256.951 343.27 256.051 344.104C255.151 344.939 254.599 346.082 254.506 347.306C254.493 347.43 254.487 347.554 254.487 347.678V361.96C254.483 365.231 253.183 368.367 250.87 370.68C248.557 372.992 245.421 374.293 242.15 374.297H233.929C232.64 374.296 231.406 373.783 230.495 372.873C229.584 371.962 229.072 370.727 229.07 369.439V299.992C229.162 299.62 229.208 299.237 229.21 298.853V225.435C229.21 223.78 228.929 222.137 228.377 220.576H258.064C259.349 220.565 260.577 220.046 261.482 219.134C262.386 218.221 262.894 216.988 262.894 215.703C262.894 214.418 262.386 213.185 261.482 212.273C260.577 211.36 259.349 210.841 258.064 210.83H214.812C214.789 210.83 214.766 210.833 214.743 210.833C214.696 210.833 214.651 210.83 214.605 210.83C210.733 210.834 207.02 212.374 204.282 215.112C201.544 217.85 200.004 221.563 200 225.435V235.489C200 236.781 200.513 238.021 201.427 238.935C202.341 239.849 203.581 240.362 204.873 240.362C206.166 240.362 207.406 239.849 208.319 238.935C209.233 238.021 209.747 236.781 209.747 235.489V225.435C209.747 224.146 210.259 222.91 211.17 221.999C212.081 221.088 213.317 220.576 214.605 220.576C215.894 220.576 217.129 221.088 218.04 221.999C218.951 222.91 219.463 224.146 219.463 225.435V297.715C219.372 298.088 219.325 298.471 219.324 298.855V369.44C219.329 373.312 220.869 377.024 223.607 379.762C226.345 382.499 230.057 384.039 233.929 384.044H338.147C350.202 384.044 359.645 374.344 359.645 361.96V347.679C359.645 347.547 359.638 347.415 359.623 347.283ZM338.146 374.297H260.458C262.924 370.656 264.239 366.358 264.234 361.96V352.552H349.898V361.96C349.897 368.993 344.845 374.297 338.146 374.297Z" fill="#D3B4ED" fill-opacity="0.25"/>
<path d="M277.639 249.999C278.931 249.999 280.171 249.486 281.085 248.572C281.999 247.658 282.512 246.418 282.512 245.126V202.395C282.501 201.11 281.982 199.882 281.07 198.977C280.157 198.073 278.924 197.565 277.639 197.565C276.354 197.565 275.121 198.073 274.209 198.977C273.296 199.882 272.777 201.11 272.766 202.395V245.126C272.766 246.418 273.279 247.658 274.193 248.572C275.107 249.486 276.347 249.999 277.639 249.999ZM258.277 226.799C256.985 226.799 255.745 227.312 254.831 228.226C253.918 229.14 253.404 230.379 253.404 231.672V241.422C253.398 242.065 253.52 242.704 253.763 243.3C254.005 243.896 254.363 244.439 254.816 244.896C255.269 245.353 255.808 245.716 256.402 245.964C256.996 246.211 257.634 246.339 258.277 246.339C258.921 246.339 259.558 246.211 260.153 245.964C260.747 245.716 261.286 245.353 261.739 244.896C262.192 244.439 262.55 243.896 262.792 243.3C263.035 242.704 263.156 242.065 263.151 241.422V231.672C263.151 230.379 262.637 229.14 261.723 228.226C260.809 227.312 259.57 226.799 258.277 226.799ZM238.679 293.424C238.679 301.173 240.976 308.749 245.281 315.193C249.587 321.637 255.706 326.659 262.865 329.625C270.025 332.591 277.903 333.367 285.504 331.856C293.105 330.344 300.086 326.612 305.566 321.133C311.046 315.653 314.778 308.672 316.29 301.071C317.802 293.47 317.026 285.592 314.061 278.432C311.095 271.273 306.073 265.153 299.63 260.848C293.186 256.542 285.611 254.244 277.861 254.244C267.474 254.256 257.515 258.387 250.169 265.732C242.824 273.077 238.692 283.036 238.679 293.424ZM306.835 288.267H304.769C304.126 288.262 303.487 288.384 302.891 288.626C302.295 288.868 301.752 289.226 301.295 289.679C300.838 290.132 300.475 290.672 300.228 291.266C299.98 291.86 299.852 292.497 299.852 293.141C299.852 293.784 299.98 294.422 300.228 295.016C300.475 295.61 300.838 296.149 301.295 296.602C301.752 297.055 302.295 297.413 302.891 297.656C303.487 297.898 304.126 298.02 304.769 298.014H306.937C305.964 304.106 303.106 309.74 298.764 314.123C294.423 318.506 288.817 321.418 282.734 322.45V320.049C282.74 319.406 282.618 318.767 282.376 318.171C282.134 317.574 281.776 317.032 281.322 316.575C280.869 316.118 280.33 315.755 279.736 315.507C279.142 315.26 278.505 315.132 277.861 315.132C277.217 315.132 276.58 315.26 275.986 315.507C275.392 315.755 274.853 316.118 274.4 316.575C273.947 317.032 273.588 317.574 273.346 318.171C273.104 318.767 272.982 319.406 272.988 320.049V322.45C266.905 321.418 261.299 318.506 256.958 314.123C252.616 309.74 249.758 304.106 248.785 298.014H250.955C252.239 298.002 253.468 297.484 254.372 296.571C255.277 295.659 255.784 294.426 255.784 293.141C255.784 291.856 255.277 290.623 254.372 289.71C253.468 288.798 252.239 288.279 250.955 288.267H248.889C249.963 282.293 252.854 276.795 257.167 272.524C261.48 268.253 267.006 265.416 272.991 264.4V266.232C273.002 267.517 273.521 268.746 274.434 269.65C275.346 270.555 276.579 271.062 277.864 271.062C279.149 271.062 280.382 270.555 281.295 269.65C282.207 268.746 282.726 267.517 282.737 266.232V264.4C288.721 265.416 294.246 268.253 298.558 272.524C302.871 276.795 305.761 282.293 306.835 288.266V288.267Z" fill="#D3B4ED" fill-opacity="0.25"/>
<path d="M282.734 291.304V284.189C282.74 283.545 282.618 282.907 282.376 282.31C282.134 281.714 281.776 281.172 281.323 280.714C280.87 280.257 280.33 279.894 279.736 279.647C279.142 279.399 278.505 279.271 277.861 279.271C277.218 279.271 276.58 279.399 275.986 279.647C275.392 279.894 274.853 280.257 274.4 280.714C273.947 281.172 273.589 281.714 273.346 282.31C273.104 282.907 272.982 283.545 272.988 284.189V293.424C272.988 294.615 273.425 295.764 274.218 296.653C274.291 296.739 274.368 296.822 274.449 296.9C274.479 296.93 274.507 296.959 274.539 296.989L288.391 309.896C288.859 310.332 289.408 310.672 290.008 310.896C290.607 311.12 291.245 311.223 291.885 311.201C292.524 311.178 293.153 311.03 293.735 310.764C294.318 310.499 294.842 310.121 295.278 309.653C295.714 309.185 296.054 308.635 296.278 308.036C296.502 307.436 296.605 306.798 296.583 306.159C296.56 305.519 296.412 304.89 296.146 304.308C295.881 303.726 295.503 303.202 295.035 302.766L282.734 291.304Z" fill="#D3B4ED"/>
<rect x="158" y="430" width="240" height="18" rx="5" fill="#D3B4ED" fill-opacity="0.5"/>
<rect x="195" y="476" width="180" height="18" rx="5" fill="#D3B4ED" fill-opacity="0.5"/>
</svg>
