<svg width="493" height="558" viewBox="0 0 493 558" fill="none" xmlns="http://www.w3.org/2000/svg">
<rect width="559" height="558" rx="5" fill="white"/>
<rect x="0.5" y="0.5" width="558" height="557" rx="4.5" stroke="#D3B4ED" stroke-opacity="0.25"/>
<path d="M0 5C0 2.23858 2.23858 0 5 0H554C556.761 0 559 2.23858 559 5V80H0V5Z" fill="#4ED1AB"/>
<path d="M26.5137 54.216C22.7937 54.216 20.2977 51.672 20.2977 47.688C20.2977 43.776 22.6737 41.112 26.5137 41.112C30.2097 41.112 32.7057 43.632 32.7057 47.664C32.7057 51.552 30.3297 54.216 26.5137 54.216ZM26.5137 52.152C28.7217 52.152 30.1857 50.544 30.1857 47.664C30.1857 44.808 28.7937 43.152 26.5137 43.152C24.3057 43.152 22.8177 44.76 22.8177 47.688C22.8177 50.52 24.2577 52.152 26.5137 52.152ZM36.2786 54V43.32H33.9746V41.304H36.2786V39.432C36.2786 37.512 37.5266 36.504 39.5426 36.504H41.7986V38.232H40.1906C39.0626 38.232 38.7506 38.784 38.7506 39.624V41.304H43.5746V39.432C43.5746 37.512 44.7986 36.504 46.8146 36.504H49.0946V38.232H47.4626C46.3346 38.232 46.0466 38.784 46.0466 39.624V41.304H48.8306V43.32H46.0466V54H43.5746V43.32H38.7506V54H36.2786ZM55.8854 54.216C52.1654 54.216 49.7174 51.6 49.7174 47.664C49.7174 43.728 52.1654 41.112 55.9814 41.112C59.0534 41.112 61.3094 42.96 61.5014 45.696H59.1014C58.8134 44.04 57.5414 43.176 55.9094 43.176C53.5574 43.176 52.2374 44.976 52.2374 47.688C52.2374 50.544 53.6774 52.152 55.8854 52.152C57.7334 52.152 58.9574 51.072 59.1494 49.464H61.5494C61.3574 52.344 59.0534 54.216 55.8854 54.216ZM68.498 54.216C65.402 54.216 63.314 51.888 63.314 47.64C63.314 43.392 65.402 41.088 68.498 41.088C70.634 41.088 72.218 42.168 72.818 43.8H72.962L73.058 41.304H75.434V54H72.962V51.48H72.818C72.218 53.112 70.634 54.216 68.498 54.216ZM69.362 52.176C71.714 52.176 72.938 50.328 72.938 48.36V46.92C72.938 44.976 71.714 43.104 69.362 43.104C67.25 43.104 65.858 44.64 65.858 47.64C65.858 50.616 67.25 52.176 69.362 52.176ZM79.0167 54V41.304H81.3687L81.4647 43.824H81.6087C82.3287 42.024 83.9607 41.112 85.8087 41.112C87.6807 41.112 89.2647 41.928 89.9127 44.088H90.1047C90.8007 42.12 92.5287 41.112 94.5687 41.112C97.0887 41.112 98.9607 42.576 98.9607 46.464V54H96.5127V46.968C96.5127 44.376 95.6247 43.152 93.6327 43.152C91.5447 43.152 90.2247 44.88 90.2247 47.064V54H87.7527V46.968C87.7527 44.376 86.8647 43.152 84.8967 43.152C82.7847 43.152 81.4647 44.88 81.4647 47.064V54H79.0167ZM102.41 58.008V41.304H104.786L104.882 43.8H105.026C105.65 42.192 107.234 41.088 109.346 41.088C112.442 41.088 114.53 43.416 114.53 47.664C114.53 51.912 112.442 54.216 109.346 54.216C107.234 54.216 105.65 53.136 105.026 51.504H104.882V58.008H102.41ZM108.482 52.176C110.594 52.176 112.01 50.64 112.01 47.664C112.01 44.664 110.594 43.128 108.482 43.128C106.13 43.128 104.906 44.976 104.906 46.944V48.36C104.906 50.328 106.13 52.176 108.482 52.176ZM121.712 54.216C118.832 54.216 117.152 52.488 117.152 49.128V41.304H119.624V48.504C119.624 50.856 120.488 52.152 122.624 52.152C124.712 52.152 126.104 50.496 126.104 48.168V41.304H128.576V54H126.224L126.104 51.432H125.96C125.336 53.184 123.68 54.216 121.712 54.216ZM136.481 54.24C133.145 54.24 131.153 52.536 131.153 50.016H133.601C133.601 51.672 134.801 52.44 136.529 52.44C138.281 52.44 139.217 51.744 139.217 50.568C139.217 49.248 138.377 48.888 136.265 48.576C133.073 48.12 131.489 47.28 131.489 44.904C131.489 42.6 133.505 41.064 136.505 41.064C139.553 41.064 141.425 42.624 141.473 45.048H139.049C139.025 43.512 138.017 42.888 136.457 42.888C134.897 42.888 133.961 43.584 133.961 44.664C133.961 45.912 134.921 46.296 137.153 46.608C140.105 47.016 141.713 47.856 141.713 50.352C141.713 52.848 139.625 54.24 136.481 54.24ZM144.442 54V36.504H146.89V43.824H147.034C147.778 42.024 149.458 41.112 151.33 41.112C153.922 41.112 155.866 42.576 155.866 46.464V54H153.394V46.968C153.394 44.376 152.458 43.152 150.442 43.152C148.258 43.152 146.89 44.88 146.89 47.064V54H144.442ZM159.328 39.36V36.504H161.8V39.36H159.328ZM159.328 54V41.304H161.8V54H159.328ZM165.354 54V41.304H167.562L167.682 43.56H167.802C168.354 41.928 169.794 41.136 171.474 41.136C171.762 41.136 172.002 41.16 172.218 41.184V43.512C172.026 43.488 171.738 43.488 171.45 43.488C169.194 43.488 167.922 44.664 167.802 46.752V54H165.354ZM179.162 54.216C175.418 54.216 173.258 51.648 173.258 47.712C173.258 43.68 175.442 41.112 179.09 41.112C183.098 41.112 185.018 44.016 184.706 48.144H175.682C175.706 50.928 177.074 52.32 179.162 52.32C180.842 52.32 181.994 51.432 182.282 50.112H184.634C184.298 52.68 182.066 54.216 179.162 54.216ZM179.09 43.008C177.146 43.008 175.898 44.208 175.706 46.464H182.282C182.21 44.064 180.914 43.008 179.09 43.008Z" fill="#FDFDFC"/>
<path d="M278 177C269.1 177 260.4 179.639 252.999 184.584C245.599 189.529 239.831 196.557 236.425 204.779C233.019 213.002 232.128 222.05 233.865 230.779C235.601 239.508 239.887 247.526 246.18 253.82C252.474 260.113 260.492 264.399 269.221 266.135C277.95 267.872 286.998 266.981 295.221 263.575C303.443 260.169 310.471 254.401 315.416 247.001C320.361 239.6 323 230.9 323 222C322.987 210.069 318.241 198.631 309.805 190.195C301.369 181.759 289.931 177.013 278 177ZM278 257C271.078 257 264.311 254.947 258.555 251.101C252.799 247.256 248.313 241.789 245.664 235.394C243.015 228.999 242.322 221.961 243.673 215.172C245.023 208.383 248.356 202.146 253.251 197.251C258.146 192.356 264.383 189.023 271.172 187.673C277.961 186.322 284.999 187.015 291.394 189.664C297.789 192.313 303.256 196.799 307.101 202.555C310.947 208.311 313 215.078 313 222C312.989 231.279 309.299 240.176 302.737 246.737C296.176 253.299 287.279 256.989 278 257Z" fill="#4ED1AB" fill-opacity="0.6"/>
<path d="M289.465 208.465L273 224.93L266.535 218.465C265.592 217.554 264.329 217.05 263.018 217.062C261.707 217.073 260.453 217.599 259.526 218.526C258.599 219.453 258.073 220.707 258.062 222.018C258.05 223.329 258.554 224.592 259.465 225.535L269.465 235.535C270.403 236.472 271.674 236.999 273 236.999C274.326 236.999 275.597 236.472 276.535 235.535L296.535 215.535C297.013 215.074 297.394 214.522 297.656 213.912C297.918 213.302 298.056 212.646 298.061 211.982C298.067 211.318 297.941 210.66 297.689 210.045C297.438 209.431 297.067 208.872 296.597 208.403C296.128 207.933 295.569 207.562 294.955 207.311C294.34 207.059 293.682 206.933 293.018 206.939C292.354 206.944 291.698 207.082 291.088 207.344C290.478 207.606 289.926 207.987 289.465 208.465Z" fill="#4ED1AB" fill-opacity="0.6"/>
<path d="M164 322C164 319.239 166.239 317 169 317H339C341.761 317 344 319.239 344 322V330C344 332.761 341.761 335 339 335H169C166.239 335 164 332.761 164 330V322Z" fill="#4ED1AB" fill-opacity="0.6"/>
<path d="M386 335C390.971 335 395 330.971 395 326C395 321.029 390.971 317 386 317C381.029 317 377 321.029 377 326C377 330.971 381.029 335 386 335Z" fill="#4ED1AB" fill-opacity="0.6"/>
<path d="M164 377C164 374.239 166.239 372 169 372H339C341.761 372 344 374.239 344 377V385C344 387.761 341.761 390 339 390H169C166.239 390 164 387.761 164 385V377Z" fill="#4ED1AB" fill-opacity="0.6"/>
<path d="M386 390C390.971 390 395 385.971 395 381C395 376.029 390.971 372 386 372C381.029 372 377 376.029 377 381C377 385.971 381.029 390 386 390Z" fill="#4ED1AB" fill-opacity="0.6"/>
<path d="M164 432C164 429.239 166.239 427 169 427H339C341.761 427 344 429.239 344 432V440C344 442.761 341.761 445 339 445H169C166.239 445 164 442.761 164 440V432Z" fill="#4ED1AB" fill-opacity="0.6"/>
<rect x="377" y="427" width="18" height="18" fill="#4ED1AB" fill-opacity="0.3"/>
</svg>
