<svg width="65" height="25" viewBox="0 0 65 25" fill="none" xmlns="http://www.w3.org/2000/svg">
<path d="M37.9 20.18C34.8 20.18 32.72 18.06 32.72 14.74C32.72 11.48 34.7 9.26 37.9 9.26C40.98 9.26 43.06 11.36 43.06 14.72C43.06 17.96 41.08 20.18 37.9 20.18ZM37.9 18.46C39.74 18.46 40.96 17.12 40.96 14.72C40.96 12.34 39.8 10.96 37.9 10.96C36.06 10.96 34.82 12.3 34.82 14.74C34.82 17.1 36.02 18.46 37.9 18.46ZM45.6173 20V5.42H47.6573V11.52H47.7773C48.3973 10.02 49.7973 9.26 51.3573 9.26C53.5173 9.26 55.1373 10.48 55.1373 13.72V20H53.0773V14.14C53.0773 11.98 52.2973 10.96 50.6173 10.96C48.7973 10.96 47.6573 12.4 47.6573 14.22V20H45.6173ZM56.882 21.74V20H64.122V21.74H56.882Z" fill="#0D0D0D"/>
<g clip-path="url(#clip0_928_14)">
<path d="M20.8359 24.1641H4.16406C3.06032 24.162 2.00237 23.7226 1.22191 22.9422C0.441441 22.1617 0.00206501 21.1037 0 20L0 10.0078C-1.9377e-06 8.90272 0.438461 7.84276 1.21915 7.06061C1.99984 6.27846 3.05897 5.83801 4.16406 5.83594H20.8359C21.941 5.83801 23.0002 6.27846 23.7808 7.06061C24.5615 7.84276 25 8.90272 25 10.0078V20C24.9979 21.1037 24.5586 22.1617 23.7781 22.9422C22.9976 23.7226 21.9397 24.162 20.8359 24.1641ZM4.16406 7.50781C3.50102 7.50781 2.86514 7.7712 2.3963 8.24005C1.92745 8.70889 1.66406 9.34477 1.66406 10.0078V20C1.66406 20.663 1.92745 21.2989 2.3963 21.7678C2.86514 22.2366 3.50102 22.5 4.16406 22.5H20.8359C21.499 22.5 22.1349 22.2366 22.6037 21.7678C23.0725 21.2989 23.3359 20.663 23.3359 20V10.0078C23.3359 9.34477 23.0725 8.70889 22.6037 8.24005C22.1349 7.7712 21.499 7.50781 20.8359 7.50781H4.16406ZM16.6641 5C16.5543 5 16.4456 4.97838 16.3442 4.93637C16.2427 4.89436 16.1506 4.83278 16.073 4.75516C15.9953 4.67754 15.9338 4.58538 15.8918 4.48396C15.8497 4.38254 15.8281 4.27384 15.8281 4.16406V3.33594C15.8281 3.11558 15.7411 2.90413 15.5861 2.74759C15.431 2.59104 15.2203 2.50206 15 2.5H10C9.89022 2.5 9.78152 2.52162 9.6801 2.56363C9.57868 2.60564 9.48653 2.66722 9.4089 2.74484C9.33128 2.82246 9.2697 2.91462 9.22769 3.01604C9.18568 3.11746 9.16406 3.22616 9.16406 3.33594V4.16406C9.17532 4.2801 9.16218 4.39721 9.12549 4.50787C9.0888 4.61853 9.02936 4.72029 8.95101 4.80662C8.87265 4.89294 8.77711 4.96192 8.67051 5.00913C8.56391 5.05633 8.44861 5.08072 8.33203 5.08072C8.21545 5.08072 8.10015 5.05633 7.99355 5.00913C7.88696 4.96192 7.79141 4.89294 7.71305 4.80662C7.6347 4.72029 7.57527 4.61853 7.53857 4.50787C7.50188 4.39721 7.48874 4.2801 7.5 4.16406V3.33594C7.5 2.6729 7.76339 2.03701 8.23223 1.56817C8.70107 1.09933 9.33696 0.835938 10 0.835938H15C15.663 0.835938 16.2989 1.09933 16.7678 1.56817C17.2366 2.03701 17.5 2.6729 17.5 3.33594V4.16406C17.5 4.27384 17.4784 4.38254 17.4364 4.48396C17.3944 4.58538 17.3328 4.67754 17.2552 4.75516C17.1775 4.83278 17.0854 4.89436 16.984 4.93637C16.8825 4.97838 16.7738 5 16.6641 5Z" fill="#363FF9"/>
<path d="M12.5004 15.3598C11.6919 15.3521 10.8937 15.1765 10.1567 14.8442L4.6879 12.4301C4.4807 12.34 4.31779 12.1712 4.23501 11.961C4.15223 11.7507 4.15636 11.5162 4.2465 11.309C4.33663 11.1018 4.50538 10.9389 4.71563 10.8561C4.92587 10.7733 5.16039 10.7775 5.36759 10.8676L10.8363 13.2973C11.3689 13.5335 11.9451 13.6555 12.5277 13.6555C13.1104 13.6555 13.6866 13.5335 14.2192 13.2973L19.6879 10.8676C19.7905 10.823 19.9009 10.799 20.0127 10.797C20.1246 10.795 20.2358 10.8151 20.3399 10.8561C20.444 10.8971 20.539 10.9582 20.6195 11.0359C20.7 11.1136 20.7644 11.2064 20.809 11.309C20.8536 11.4116 20.8776 11.522 20.8796 11.6338C20.8816 11.7457 20.8615 11.8569 20.8205 11.961C20.7795 12.0651 20.7184 12.1601 20.6407 12.2406C20.563 12.3211 20.4702 12.3855 20.3676 12.4301L14.8442 14.8442C14.1071 15.1765 13.3089 15.3521 12.5004 15.3598Z" fill="#363FF9"/>
</g>
<defs>
<clipPath id="clip0_928_14">
<rect width="25" height="25" fill="white"/>
</clipPath>
</defs>
</svg>
