<svg width="1280" height="881" viewBox="0 0 1280 881" fill="none" xmlns="http://www.w3.org/2000/svg">
<mask id="mask0_330_645" style="mask-type:luminance" maskUnits="userSpaceOnUse" x="0" y="-13" width="1280" height="894">
<path d="M1280 -12.8613V880.082H0V-12.8613H1280Z" fill="white"/>
</mask>
<g mask="url(#mask0_330_645)">
<path d="M1279.82 -5.26953V887.697H-0.150391V-5.26953H1279.82Z" fill="url(#paint0_linear_330_645)"/>
<g style="mix-blend-mode:overlay">
<path d="M46.3255 47.7188C46.3255 49.4734 45.0375 50.8771 43.5348 50.8771C41.9247 50.8771 40.6367 49.4734 40.6367 47.7188C40.6367 45.9642 41.9247 44.5605 43.5348 44.5605C45.0375 44.5605 46.3255 45.9642 46.3255 47.7188Z" fill="white"/>
<path d="M155.808 365.883C155.808 367.637 154.52 369.041 153.017 369.041C151.407 369.041 150.119 367.637 150.119 365.883C150.119 364.128 151.407 362.725 153.017 362.725C154.52 362.725 155.808 364.128 155.808 365.883Z" fill="white"/>
<path d="M206.685 407.992C206.685 409.747 205.397 411.15 203.787 411.15C202.177 411.15 200.889 409.747 200.889 407.992C200.889 406.238 202.177 404.834 203.787 404.834C205.397 404.834 206.685 406.238 206.685 407.992Z" fill="white"/>
<path d="M243.824 24.3243C243.824 26.0789 242.536 27.4825 241.033 27.4825C239.423 27.4825 238.135 26.0789 238.135 24.3243C238.135 22.5697 239.423 21.166 241.033 21.166C242.536 21.166 243.824 22.5697 243.824 24.3243Z" fill="white"/>
<path d="M96.1301 116.732C96.1301 118.487 94.8421 119.891 93.232 119.891C91.622 119.891 90.334 118.487 90.334 116.732C90.334 114.978 91.622 113.574 93.232 113.574C94.8421 113.574 96.1301 114.978 96.1301 116.732Z" fill="white"/>
<path d="M213.769 137.436C213.769 139.19 212.481 140.477 210.978 140.477C209.368 140.477 208.08 139.19 208.08 137.436C208.08 135.681 209.368 134.277 210.978 134.277C212.481 134.277 213.769 135.681 213.769 137.436Z" fill="white"/>
<path d="M217.417 190.424C217.417 192.178 216.129 193.582 214.519 193.582C212.909 193.582 211.621 192.178 211.621 190.424C211.621 188.669 212.909 187.266 214.519 187.266C216.129 187.266 217.417 188.669 217.417 190.424Z" fill="white"/>
<path d="M37.0949 254.408C37.0949 256.163 35.8069 257.45 34.1969 257.45C32.5869 257.45 31.2988 256.163 31.2988 254.408C31.2988 252.654 32.5869 251.25 34.1969 251.25C35.8069 251.25 37.0949 252.654 37.0949 254.408Z" fill="white"/>
<path d="M123.609 151.473C123.609 153.227 122.321 154.514 120.818 154.514C119.208 154.514 117.92 153.227 117.92 151.473C117.92 149.718 119.208 148.314 120.818 148.314C122.321 148.314 123.609 149.718 123.609 151.473Z" fill="white"/>
<path d="M195.95 260.607C195.95 262.362 194.662 263.766 193.052 263.766C191.442 263.766 190.154 262.362 190.154 260.607C190.154 258.853 191.442 257.449 193.052 257.449C194.662 257.449 195.95 258.853 195.95 260.607Z" fill="white"/>
<path d="M41.3879 305.059C41.3879 306.813 40.0999 308.217 38.4899 308.217C36.8798 308.217 35.5918 306.813 35.5918 305.059C35.5918 303.304 36.8798 301.9 38.4899 301.9C40.0999 301.9 41.3879 303.304 41.3879 305.059Z" fill="white"/>
<path d="M67.7924 223.996C67.7924 225.751 66.5043 227.037 65.0016 227.037C63.3915 227.037 62.1035 225.751 62.1035 223.996C62.1035 222.242 63.3915 220.838 65.0016 220.838C66.5043 220.838 67.7924 222.242 67.7924 223.996Z" fill="white"/>
<path d="M266.792 187.266C266.792 189.02 265.504 190.424 263.894 190.424C262.284 190.424 260.996 189.02 260.996 187.266C260.996 185.628 262.284 184.225 263.894 184.225C265.504 184.225 266.792 185.628 266.792 187.266Z" fill="white"/>
<path d="M112.23 329.27C112.23 331.024 110.942 332.311 109.332 332.311C107.722 332.311 106.434 331.024 106.434 329.27C106.434 327.515 107.722 326.111 109.332 326.111C110.942 326.111 112.23 327.515 112.23 329.27Z" fill="white"/>
<path d="M143.572 100.123C143.572 100.824 143.036 101.409 142.392 101.409C141.748 101.409 141.211 100.824 141.211 100.123C141.211 99.4208 141.748 98.8359 142.392 98.8359C143.036 98.8359 143.572 99.4208 143.572 100.123Z" fill="white"/>
<path d="M246.184 99.1871C246.184 99.8889 245.647 100.474 245.003 100.474C244.359 100.474 243.822 99.8889 243.822 99.1871C243.822 98.4852 244.359 97.9004 245.003 97.9004C245.647 97.9004 246.184 98.4852 246.184 99.1871Z" fill="white"/>
<path d="M350.514 100.005C350.514 100.707 349.977 101.292 349.333 101.292C348.689 101.292 348.152 100.707 348.152 100.005C348.152 99.3036 348.689 98.7188 349.333 98.7188C349.977 98.7188 350.514 99.3036 350.514 100.005Z" fill="white"/>
<path d="M46.0032 131.938C46.0032 133.692 44.7152 135.096 43.1052 135.096C41.6025 135.096 40.3145 133.692 40.3145 131.938C40.3145 130.183 41.6025 128.779 43.1052 128.779C44.7152 128.779 46.0032 130.183 46.0032 131.938Z" fill="white"/>
<g style="mix-blend-mode:overlay">
<path d="M45.2533 87.7233C45.2533 88.6591 44.6093 89.4779 43.6432 89.4779C42.7845 89.4779 42.0332 88.6591 42.0332 87.7233C42.0332 86.7876 42.7845 85.9688 43.6432 85.9688C44.6093 85.9688 45.2533 86.7876 45.2533 87.7233Z" fill="white"/>
</g>
<g style="mix-blend-mode:overlay">
<path d="M40.8509 11.1061C40.8509 12.0419 40.0996 12.8607 39.2409 12.8607C38.2749 12.8607 37.6309 12.0419 37.6309 11.1061C37.6309 10.1704 38.2749 9.35156 39.2409 9.35156C40.0996 9.35156 40.8509 10.1704 40.8509 11.1061Z" fill="white"/>
</g>
<g style="mix-blend-mode:overlay">
<path d="M79.8138 158.608C79.8138 159.661 79.0625 160.363 78.2038 160.363C77.3451 160.363 76.5938 159.661 76.5938 158.608C76.5938 157.672 77.3451 156.854 78.2038 156.854C79.0625 156.854 79.8138 157.672 79.8138 158.608Z" fill="white"/>
</g>
<g style="mix-blend-mode:overlay">
<path d="M60.1732 371.965C60.1732 372.9 59.4218 373.719 58.5632 373.719C57.5971 373.719 56.9531 372.9 56.9531 371.965C56.9531 371.029 57.5971 370.211 58.5632 370.211C59.4218 370.211 60.1732 371.029 60.1732 371.965Z" fill="white"/>
</g>
<g style="mix-blend-mode:overlay">
<path d="M86.5772 248.678C86.5772 249.731 85.9332 250.433 84.9672 250.433C84.1085 250.433 83.3574 249.731 83.3574 248.678C83.3574 247.743 84.1085 246.924 84.9672 246.924C85.9332 246.924 86.5772 247.743 86.5772 248.678Z" fill="white"/>
</g>
<g style="mix-blend-mode:overlay">
<path d="M141.747 424.954C141.747 425.89 140.996 426.708 140.137 426.708C139.171 426.708 138.527 425.89 138.527 424.954C138.527 424.018 139.171 423.199 140.137 423.199C140.996 423.199 141.747 424.018 141.747 424.954Z" fill="white"/>
</g>
<g style="mix-blend-mode:overlay">
<path d="M133.16 251.483C133.16 252.419 132.408 253.238 131.549 253.238C130.583 253.238 129.939 252.419 129.939 251.483C129.939 250.547 130.583 249.729 131.549 249.729C132.408 249.729 133.16 250.547 133.16 251.483Z" fill="white"/>
</g>
<g style="mix-blend-mode:overlay">
<path d="M178.886 155.567C178.886 156.503 178.242 157.322 177.276 157.322C176.417 157.322 175.666 156.503 175.666 155.567C175.666 154.631 176.417 153.812 177.276 153.812C178.242 153.812 178.886 154.631 178.886 155.567Z" fill="white"/>
</g>
<g style="mix-blend-mode:overlay">
<path d="M167.507 203.878C167.507 204.813 166.756 205.632 165.897 205.632C164.931 205.632 164.287 204.813 164.287 203.878C164.287 202.942 164.931 202.123 165.897 202.123C166.756 202.123 167.507 202.942 167.507 203.878Z" fill="white"/>
</g>
<g style="mix-blend-mode:overlay">
<path d="M255.523 243.647C255.523 244.583 254.771 245.402 253.913 245.402C252.947 245.402 252.303 244.583 252.303 243.647C252.303 242.711 252.947 241.893 253.913 241.893C254.771 241.893 255.523 242.711 255.523 243.647Z" fill="white"/>
</g>
<g style="mix-blend-mode:overlay">
<path d="M92.4779 71.4655C92.4779 72.5183 91.8339 73.2201 90.8678 73.2201C90.0092 73.2201 89.2578 72.5183 89.2578 71.4655C89.2578 70.5297 90.0092 69.7109 90.8678 69.7109C91.8339 69.7109 92.4779 70.5297 92.4779 71.4655Z" fill="white"/>
</g>
<g style="mix-blend-mode:overlay">
<path d="M120.818 27.5994C120.818 29.354 119.422 30.7577 117.812 30.7577C116.202 30.7577 114.914 29.354 114.914 27.5994C114.914 25.7279 116.202 24.3242 117.812 24.3242C119.422 24.3242 120.818 25.7279 120.818 27.5994Z" fill="white"/>
</g>
<g style="mix-blend-mode:overlay">
<path d="M125.216 204.344C125.109 206.098 123.821 207.619 122.21 207.619C120.6 207.619 119.205 206.098 119.205 204.344C119.205 202.589 120.6 201.186 122.21 201.186C123.821 201.186 125.109 202.589 125.109 204.344H125.216Z" fill="white"/>
</g>
<g style="mix-blend-mode:overlay">
<path d="M350.622 164.689C350.515 166.444 349.227 167.965 347.617 167.965C346.007 167.965 344.611 166.444 344.611 164.689C344.611 162.935 346.007 161.531 347.617 161.531C349.227 161.531 350.515 162.935 350.515 164.689H350.622Z" fill="white"/>
</g>
<g style="mix-blend-mode:overlay">
<path d="M322.714 41.5194C322.607 43.2739 321.319 44.6776 319.709 44.6776C318.098 44.6776 316.703 43.2739 316.703 41.5194C316.703 39.7648 318.098 38.2441 319.709 38.2441C321.319 38.2441 322.607 39.7648 322.607 41.5194H322.714Z" fill="white"/>
</g>
<g style="mix-blend-mode:overlay">
<path d="M203.144 311.258C203.144 313.129 201.856 314.533 200.246 314.533C198.528 314.533 197.24 313.129 197.24 311.258C197.24 309.503 198.528 308.1 200.246 308.1C201.856 308.1 203.144 309.503 203.144 311.258Z" fill="white"/>
</g>
<g style="mix-blend-mode:overlay">
<path d="M249.726 347.168C249.726 348.923 248.438 350.443 246.828 350.443C245.218 350.443 243.822 348.923 243.822 347.168C243.822 345.413 245.218 344.01 246.828 344.01C248.438 344.01 249.726 345.413 249.726 347.168Z" fill="white"/>
</g>
<g style="mix-blend-mode:overlay">
<path d="M38.5988 199.783C38.5988 201.538 37.3107 203.058 35.5934 203.058C33.9833 203.058 32.6953 201.538 32.6953 199.783C32.6953 198.029 33.9833 196.625 35.5934 196.625C37.3107 196.625 38.5988 198.029 38.5988 199.783Z" fill="white"/>
</g>
<g style="mix-blend-mode:overlay">
<path d="M172.445 47.4851C172.445 48.5378 171.801 49.2396 170.835 49.2396C169.976 49.2396 169.225 48.5378 169.225 47.4851C169.225 46.5493 169.976 45.7305 170.835 45.7305C171.801 45.7305 172.445 46.5493 172.445 47.4851Z" fill="white"/>
</g>
<g style="mix-blend-mode:overlay">
<path d="M205.396 67.8366C205.396 68.7724 204.644 69.5912 203.786 69.5912C202.927 69.5912 202.176 68.7724 202.176 67.8366C202.176 66.9008 202.927 66.082 203.786 66.082C204.644 66.082 205.396 66.9008 205.396 67.8366Z" fill="white"/>
</g>
<g style="mix-blend-mode:overlay">
<path d="M300.39 117.901C300.39 118.837 299.639 119.656 298.78 119.656C297.921 119.656 297.17 118.837 297.17 117.901C297.17 116.965 297.921 116.146 298.78 116.146C299.639 116.146 300.39 116.965 300.39 117.901Z" fill="white"/>
</g>
<g style="mix-blend-mode:overlay">
<path d="M309.298 188.087C309.298 189.022 308.654 189.841 307.688 189.841C306.829 189.841 306.078 189.022 306.078 188.087C306.078 187.151 306.829 186.332 307.688 186.332C308.654 186.332 309.298 187.151 309.298 188.087Z" fill="white"/>
</g>
<g style="mix-blend-mode:overlay">
<path d="M276.99 64.9147C276.99 65.8505 276.238 66.6693 275.38 66.6693C274.414 66.6693 273.77 65.8505 273.77 64.9147C273.77 63.979 274.414 63.1602 275.38 63.1602C276.238 63.1602 276.99 63.979 276.99 64.9147Z" fill="white"/>
</g>
</g>
<g style="mix-blend-mode:overlay">
<path d="M1247.84 47.7188C1247.84 49.4734 1249.12 50.8771 1250.63 50.8771C1252.24 50.8771 1253.53 49.4734 1253.53 47.7188C1253.53 45.9642 1252.24 44.5605 1250.63 44.5605C1249.12 44.5605 1247.84 45.9642 1247.84 47.7188Z" fill="white"/>
<path d="M1138.36 365.883C1138.36 367.637 1139.64 369.041 1141.14 369.041C1142.75 369.041 1144.04 367.637 1144.04 365.883C1144.04 364.128 1142.75 362.725 1141.14 362.725C1139.64 362.725 1138.36 364.128 1138.36 365.883Z" fill="white"/>
<path d="M1087.48 407.992C1087.48 409.747 1088.77 411.15 1090.38 411.15C1091.99 411.15 1093.28 409.747 1093.28 407.992C1093.28 406.238 1091.99 404.834 1090.38 404.834C1088.77 404.834 1087.48 406.238 1087.48 407.992Z" fill="white"/>
<path d="M1050.35 24.3243C1050.35 26.0789 1051.63 27.4825 1053.13 27.4825C1054.74 27.4825 1056.03 26.0789 1056.03 24.3243C1056.03 22.5697 1054.74 21.166 1053.13 21.166C1051.63 21.166 1050.35 22.5697 1050.35 24.3243Z" fill="white"/>
<path d="M1198.03 116.732C1198.03 118.487 1199.32 119.891 1200.93 119.891C1202.54 119.891 1203.83 118.487 1203.83 116.732C1203.83 114.978 1202.54 113.574 1200.93 113.574C1199.32 113.574 1198.03 114.978 1198.03 116.732Z" fill="white"/>
<path d="M1080.4 137.436C1080.4 139.19 1081.68 140.477 1083.18 140.477C1084.79 140.477 1086.08 139.19 1086.08 137.436C1086.08 135.681 1084.79 134.277 1083.18 134.277C1081.68 134.277 1080.4 135.681 1080.4 137.436Z" fill="white"/>
<path d="M1076.74 190.424C1076.74 192.178 1078.04 193.582 1079.65 193.582C1081.26 193.582 1082.55 192.178 1082.55 190.424C1082.55 188.669 1081.26 187.266 1079.65 187.266C1078.04 187.266 1076.74 188.669 1076.74 190.424Z" fill="white"/>
<path d="M1257.07 254.408C1257.07 256.163 1258.36 257.45 1259.97 257.45C1261.58 257.45 1262.87 256.163 1262.87 254.408C1262.87 252.654 1261.58 251.25 1259.97 251.25C1258.36 251.25 1257.07 252.654 1257.07 254.408Z" fill="white"/>
<path d="M1170.56 151.473C1170.56 153.227 1171.84 154.514 1173.34 154.514C1174.95 154.514 1176.25 153.227 1176.25 151.473C1176.25 149.718 1174.95 148.314 1173.34 148.314C1171.84 148.314 1170.56 149.718 1170.56 151.473Z" fill="white"/>
<path d="M1098.21 260.607C1098.21 262.362 1099.5 263.766 1101.11 263.766C1102.72 263.766 1104.01 262.362 1104.01 260.607C1104.01 258.853 1102.72 257.449 1101.11 257.449C1099.5 257.449 1098.21 258.853 1098.21 260.607Z" fill="white"/>
<path d="M1252.77 305.059C1252.77 306.813 1254.06 308.217 1255.67 308.217C1257.28 308.217 1258.58 306.813 1258.58 305.059C1258.58 303.304 1257.28 301.9 1255.67 301.9C1254.06 301.9 1252.77 303.304 1252.77 305.059Z" fill="white"/>
<path d="M1226.38 223.996C1226.38 225.751 1227.66 227.037 1229.16 227.037C1230.77 227.037 1232.06 225.751 1232.06 223.996C1232.06 222.242 1230.77 220.838 1229.16 220.838C1227.66 220.838 1226.38 222.242 1226.38 223.996Z" fill="white"/>
<path d="M1027.37 187.266C1027.37 189.02 1028.66 190.424 1030.27 190.424C1031.88 190.424 1033.17 189.02 1033.17 187.266C1033.17 185.628 1031.88 184.225 1030.27 184.225C1028.66 184.225 1027.37 185.628 1027.37 187.266Z" fill="white"/>
<path d="M1181.93 329.27C1181.93 331.024 1183.22 332.311 1184.83 332.311C1186.44 332.311 1187.73 331.024 1187.73 329.27C1187.73 327.515 1186.44 326.111 1184.83 326.111C1183.22 326.111 1181.93 327.515 1181.93 329.27Z" fill="white"/>
<path d="M1150.59 100.123C1150.59 100.824 1151.13 101.409 1151.78 101.409C1152.41 101.409 1152.95 100.824 1152.95 100.123C1152.95 99.4208 1152.41 98.8359 1151.78 98.8359C1151.13 98.8359 1150.59 99.4208 1150.59 100.123Z" fill="white"/>
<path d="M1047.98 99.1871C1047.98 99.8889 1048.52 100.474 1049.16 100.474C1049.81 100.474 1050.35 99.8889 1050.35 99.1871C1050.35 98.4852 1049.81 97.9004 1049.16 97.9004C1048.52 97.9004 1047.98 98.4852 1047.98 99.1871Z" fill="white"/>
<path d="M943.646 100.005C943.646 100.707 944.183 101.292 944.829 101.292C945.475 101.292 946.011 100.707 946.011 100.005C946.011 99.3036 945.475 98.7188 944.829 98.7188C944.183 98.7188 943.646 99.3036 943.646 100.005Z" fill="white"/>
<path d="M1248.16 131.938C1248.16 133.692 1249.45 135.096 1251.06 135.096C1252.56 135.096 1253.85 133.692 1253.85 131.938C1253.85 130.183 1252.56 128.779 1251.06 128.779C1249.45 128.779 1248.16 130.183 1248.16 131.938Z" fill="white"/>
<g style="mix-blend-mode:overlay">
<path d="M1248.91 87.7233C1248.91 88.6591 1249.55 89.4779 1250.52 89.4779C1251.38 89.4779 1252.13 88.6591 1252.13 87.7233C1252.13 86.7876 1251.38 85.9688 1250.52 85.9688C1249.55 85.9688 1248.91 86.7876 1248.91 87.7233Z" fill="white"/>
</g>
<g style="mix-blend-mode:overlay">
<path d="M1253.31 11.1061C1253.31 12.0419 1254.06 12.8607 1254.92 12.8607C1255.89 12.8607 1256.53 12.0419 1256.53 11.1061C1256.53 10.1704 1255.89 9.35156 1254.92 9.35156C1254.06 9.35156 1253.31 10.1704 1253.31 11.1061Z" fill="white"/>
</g>
<g style="mix-blend-mode:overlay">
<path d="M1214.35 158.608C1214.35 159.661 1215.1 160.363 1215.96 160.363C1216.82 160.363 1217.57 159.661 1217.57 158.608C1217.57 157.672 1216.82 156.854 1215.96 156.854C1215.1 156.854 1214.35 157.672 1214.35 158.608Z" fill="white"/>
</g>
<g style="mix-blend-mode:overlay">
<path d="M1233.99 371.965C1233.99 372.9 1234.74 373.719 1235.6 373.719C1236.57 373.719 1237.21 372.9 1237.21 371.965C1237.21 371.029 1236.57 370.211 1235.6 370.211C1234.74 370.211 1233.99 371.029 1233.99 371.965Z" fill="white"/>
</g>
<g style="mix-blend-mode:overlay">
<path d="M1207.59 248.678C1207.59 249.731 1208.23 250.433 1209.2 250.433C1210.06 250.433 1210.81 249.731 1210.81 248.678C1210.81 247.743 1210.06 246.924 1209.2 246.924C1208.23 246.924 1207.59 247.743 1207.59 248.678Z" fill="white"/>
</g>
<g style="mix-blend-mode:overlay">
<path d="M1152.42 424.954C1152.42 425.89 1153.17 426.708 1154.03 426.708C1155 426.708 1155.64 425.89 1155.64 424.954C1155.64 424.018 1155 423.199 1154.03 423.199C1153.17 423.199 1152.42 424.018 1152.42 424.954Z" fill="white"/>
</g>
<g style="mix-blend-mode:overlay">
<path d="M1161 251.483C1161 252.419 1161.75 253.238 1162.61 253.238C1163.58 253.238 1164.22 252.419 1164.22 251.483C1164.22 250.547 1163.58 249.729 1162.61 249.729C1161.75 249.729 1161 250.547 1161 251.483Z" fill="white"/>
</g>
<g style="mix-blend-mode:overlay">
<path d="M1115.28 155.567C1115.28 156.503 1115.92 157.322 1116.89 157.322C1117.75 157.322 1118.5 156.503 1118.5 155.567C1118.5 154.631 1117.75 153.812 1116.89 153.812C1115.92 153.812 1115.28 154.631 1115.28 155.567Z" fill="white"/>
</g>
<g style="mix-blend-mode:overlay">
<path d="M1126.65 203.878C1126.65 204.813 1127.41 205.632 1128.26 205.632C1129.24 205.632 1129.87 204.813 1129.87 203.878C1129.87 202.942 1129.24 202.123 1128.26 202.123C1127.41 202.123 1126.65 202.942 1126.65 203.878Z" fill="white"/>
</g>
<g style="mix-blend-mode:overlay">
<path d="M1038.64 243.647C1038.64 244.583 1039.39 245.402 1040.25 245.402C1041.22 245.402 1041.86 244.583 1041.86 243.647C1041.86 242.711 1041.22 241.893 1040.25 241.893C1039.39 241.893 1038.64 242.711 1038.64 243.647Z" fill="white"/>
</g>
<g style="mix-blend-mode:overlay">
<path d="M1201.69 71.4655C1201.69 72.5183 1202.33 73.2201 1203.3 73.2201C1204.15 73.2201 1204.91 72.5183 1204.91 71.4655C1204.91 70.5297 1204.15 69.7109 1203.3 69.7109C1202.33 69.7109 1201.69 70.5297 1201.69 71.4655Z" fill="white"/>
</g>
<g style="mix-blend-mode:overlay">
<path d="M1173.34 27.5994C1173.34 29.354 1174.74 30.7577 1176.35 30.7577C1177.96 30.7577 1179.25 29.354 1179.25 27.5994C1179.25 25.7279 1177.96 24.3242 1176.35 24.3242C1174.74 24.3242 1173.34 25.7279 1173.34 27.5994Z" fill="white"/>
</g>
<g style="mix-blend-mode:overlay">
<path d="M1169.05 204.344C1169.05 206.098 1170.34 207.619 1171.95 207.619C1173.56 207.619 1174.96 206.098 1174.96 204.344C1174.96 202.589 1173.56 201.186 1171.95 201.186C1170.34 201.186 1169.05 202.589 1169.05 204.344Z" fill="white"/>
</g>
<g style="mix-blend-mode:overlay">
<path d="M943.646 164.689C943.646 166.444 944.938 167.965 946.548 167.965C948.158 167.965 949.55 166.444 949.55 164.689C949.55 162.935 948.158 161.531 946.548 161.531C944.938 161.531 943.646 162.935 943.646 164.689Z" fill="white"/>
</g>
<g style="mix-blend-mode:overlay">
<path d="M971.553 41.5194C971.553 43.2739 972.844 44.6776 974.454 44.6776C976.064 44.6776 977.456 43.2739 977.456 41.5194C977.456 39.7648 976.064 38.2441 974.454 38.2441C972.844 38.2441 971.553 39.7648 971.553 41.5194Z" fill="white"/>
</g>
<g style="mix-blend-mode:overlay">
<path d="M1091.02 311.258C1091.02 313.129 1092.31 314.533 1093.92 314.533C1095.64 314.533 1096.93 313.129 1096.93 311.258C1096.93 309.503 1095.64 308.1 1093.92 308.1C1092.31 308.1 1091.02 309.503 1091.02 311.258Z" fill="white"/>
</g>
<g style="mix-blend-mode:overlay">
<path d="M1044.44 347.168C1044.44 348.923 1045.72 350.443 1047.33 350.443C1048.94 350.443 1050.34 348.923 1050.34 347.168C1050.34 345.413 1048.94 344.01 1047.33 344.01C1045.72 344.01 1044.44 345.413 1044.44 347.168Z" fill="white"/>
</g>
<g style="mix-blend-mode:overlay">
<path d="M1255.57 199.783C1255.57 201.538 1256.86 203.058 1258.58 203.058C1260.19 203.058 1261.47 201.538 1261.47 199.783C1261.47 198.029 1260.19 196.625 1258.58 196.625C1256.86 196.625 1255.57 198.029 1255.57 199.783Z" fill="white"/>
</g>
<g style="mix-blend-mode:overlay">
<path d="M1121.72 47.4851C1121.72 48.5378 1122.36 49.2396 1123.33 49.2396C1124.19 49.2396 1124.94 48.5378 1124.94 47.4851C1124.94 46.5493 1124.19 45.7305 1123.33 45.7305C1122.36 45.7305 1121.72 46.5493 1121.72 47.4851Z" fill="white"/>
</g>
<g style="mix-blend-mode:overlay">
<path d="M1088.77 67.8366C1088.77 68.7724 1089.52 69.5912 1090.38 69.5912C1091.23 69.5912 1091.99 68.7724 1091.99 67.8366C1091.99 66.9008 1091.23 66.082 1090.38 66.082C1089.52 66.082 1088.77 66.9008 1088.77 67.8366Z" fill="white"/>
</g>
<g style="mix-blend-mode:overlay">
<path d="M993.773 117.901C993.773 118.837 994.528 119.656 995.384 119.656C996.239 119.656 996.993 118.837 996.993 117.901C996.993 116.965 996.239 116.146 995.384 116.146C994.528 116.146 993.773 116.965 993.773 117.901Z" fill="white"/>
</g>
<g style="mix-blend-mode:overlay">
<path d="M984.871 188.087C984.871 189.022 985.508 189.841 986.481 189.841C987.336 189.841 988.091 189.022 988.091 188.087C988.091 187.151 987.336 186.332 986.481 186.332C985.508 186.332 984.871 187.151 984.871 188.087Z" fill="white"/>
</g>
<g style="mix-blend-mode:overlay">
<path d="M1017.17 64.9147C1017.17 65.8505 1017.93 66.6693 1018.78 66.6693C1019.75 66.6693 1020.39 65.8505 1020.39 64.9147C1020.39 63.979 1019.75 63.1602 1018.78 63.1602C1017.93 63.1602 1017.17 63.979 1017.17 64.9147Z" fill="white"/>
</g>
</g>
<path d="M578.88 950.699L723.639 1027.46L823.437 973.471C824.11 967.001 824.445 960.394 824.445 953.65C824.445 853.473 746.824 772.277 651.057 772.277C563.557 772.277 491.379 839.975 479.484 927.916L528.275 958.283L578.88 950.699Z" fill="white"/>
<path style="mix-blend-mode:overlay" d="M528.273 958.283L578.878 950.698L723.637 1027.46L902.666 930.447L933.316 947.317C933.316 946.622 933.316 945.919 933.316 945.215C933.316 780.925 806.097 647.85 649.04 647.85C510.329 647.85 395.007 751.821 369.805 889.114L394.401 874.984L528.273 958.283Z" fill="url(#paint1_radial_330_645)"/>
<path style="mix-blend-mode:color-dodge" d="M911.881 351.966L1173.78 216.278C1174.21 216.044 1174.74 216.278 1174.85 216.629C1175.06 217.097 1174.95 217.564 1174.53 217.798L919.067 367.523C915.202 369.862 910.371 368.225 908.225 364.014C906.187 359.803 907.588 354.539 911.554 352.2C911.629 352.121 911.738 352.043 911.881 351.966Z" fill="url(#paint2_linear_330_645)"/>
<path d="M909.836 359.802C909.836 356.526 912.31 353.836 915.421 353.836C918.532 353.836 921.005 356.526 921.005 359.802C921.005 363.194 918.532 365.884 915.421 365.884C912.31 365.884 909.836 363.194 909.836 359.802Z" fill="white"/>
</g>
<defs>
<linearGradient id="paint0_linear_330_645" x1="377.562" y1="649.559" x2="377.562" y2="50.0373" gradientUnits="userSpaceOnUse">
<stop stop-color="#3CA1E5"/>
<stop offset="0.629" stop-color="#432B79"/>
<stop offset="1" stop-color="#2D1D52"/>
</linearGradient>
<radialGradient id="paint1_radial_330_645" cx="0" cy="0" r="1" gradientUnits="userSpaceOnUse" gradientTransform="translate(649.04 945.243) scale(284.274 297.36)">
<stop stop-color="white"/>
<stop offset="1" stop-color="white" stop-opacity="0"/>
</radialGradient>
<linearGradient id="paint2_linear_330_645" x1="876.871" y1="283.453" x2="1145.05" y2="164.505" gradientUnits="userSpaceOnUse">
<stop stop-color="#00DEFF"/>
<stop offset="1" stop-color="white" stop-opacity="0"/>
</linearGradient>
</defs>
</svg>
