<svg xmlns:xlink="http://www.w3.org/1999/xlink" xmlns="http://www.w3.org/2000/svg" width="28" height="28" viewBox="0 0 28 28" fill="none">
<g id="Instagram" clip-path="url(#clip0_2058_618)">
<g id="Vector">
<path d="M14 2.52316C17.7404 2.52316 18.1794 2.53984 19.6578 2.60653C21.025 2.66766 21.7642 2.89553 22.2588 3.09005C22.9147 3.34571 23.3815 3.64583 23.8706 4.13491C24.3597 4.624 24.6654 5.09085 24.9155 5.74666C25.1044 6.2413 25.3379 6.98049 25.399 8.3477C25.4657 9.82606 25.4824 10.2651 25.4824 14.0055C25.4824 17.7459 25.4657 18.1849 25.399 19.6633C25.3379 21.0305 25.11 21.7697 24.9155 22.2643C24.6598 22.9201 24.3597 23.387 23.8706 23.8761C23.3815 24.3652 22.9147 24.6708 22.2588 24.9209C21.7642 25.1099 21.025 25.3433 19.6578 25.4045C18.1794 25.4712 17.7404 25.4878 14 25.4878C10.2596 25.4878 9.82057 25.4712 8.34221 25.4045C6.975 25.3433 6.23581 25.1155 5.74117 24.9209C5.08536 24.6653 4.6185 24.3652 4.12942 23.8761C3.64034 23.387 3.33466 22.9201 3.08456 22.2643C2.8956 21.7697 2.66217 21.0305 2.60103 19.6633C2.53434 18.1849 2.51767 17.7459 2.51767 14.0055C2.51767 10.2651 2.53434 9.82606 2.60103 8.3477C2.66217 6.98049 2.89004 6.2413 3.08456 5.74666C3.34022 5.09085 3.64034 4.624 4.12942 4.13491C4.6185 3.64583 5.08536 3.34015 5.74117 3.09005C6.23581 2.90109 6.975 2.66766 8.34221 2.60653C9.82057 2.53428 10.2652 2.52316 14 2.52316ZM14 -6.10352e-05C10.1985 -6.10352e-05 9.72053 0.0166122 8.22549 0.0833054C6.73601 0.149999 5.71894 0.388982 4.8297 0.733563C3.90711 1.08926 3.12902 1.57279 2.35093 2.35087C1.57285 3.12896 1.09488 3.9126 0.733625 4.82963C0.389044 5.71887 0.15006 6.73595 0.0833665 8.23098C0.0166733 9.72046 0 10.1984 0 13.9999C0 17.8014 0.0166733 18.2794 0.0833665 19.7745C0.15006 21.2639 0.389044 22.281 0.733625 23.1758C1.08932 24.0984 1.57285 24.8765 2.35093 25.6546C3.12902 26.4326 3.91267 26.9106 4.8297 27.2719C5.71894 27.6165 6.73601 27.8554 8.23105 27.9221C9.72609 27.9888 10.1985 28.0055 14.0056 28.0055C17.8126 28.0055 18.285 27.9888 19.7801 27.9221C21.2696 27.8554 22.2866 27.6165 23.1814 27.2719C24.104 26.9162 24.8821 26.4326 25.6602 25.6546C26.4383 24.8765 26.9163 24.0928 27.2775 23.1758C27.6221 22.2866 27.8611 21.2695 27.9278 19.7745C27.9945 18.2794 28.0111 17.807 28.0111 13.9999C28.0111 10.1929 27.9945 9.72046 27.9278 8.22542C27.8611 6.73595 27.6221 5.71887 27.2775 4.82408C26.9218 3.90149 26.4383 3.1234 25.6602 2.34531C24.8821 1.56723 24.0985 1.08926 23.1814 0.728006C22.2922 0.383424 21.2751 0.144441 19.7801 0.0777476C18.2795 0.0166122 17.8015 -6.10352e-05 14 -6.10352e-05Z" fill="white"/>
<path d="M14 2.52316C17.7404 2.52316 18.1794 2.53984 19.6578 2.60653C21.025 2.66766 21.7642 2.89553 22.2588 3.09005C22.9147 3.34571 23.3815 3.64583 23.8706 4.13491C24.3597 4.624 24.6654 5.09085 24.9155 5.74666C25.1044 6.2413 25.3379 6.98049 25.399 8.3477C25.4657 9.82606 25.4824 10.2651 25.4824 14.0055C25.4824 17.7459 25.4657 18.1849 25.399 19.6633C25.3379 21.0305 25.11 21.7697 24.9155 22.2643C24.6598 22.9201 24.3597 23.387 23.8706 23.8761C23.3815 24.3652 22.9147 24.6708 22.2588 24.9209C21.7642 25.1099 21.025 25.3433 19.6578 25.4045C18.1794 25.4712 17.7404 25.4878 14 25.4878C10.2596 25.4878 9.82057 25.4712 8.34221 25.4045C6.975 25.3433 6.23581 25.1155 5.74117 24.9209C5.08536 24.6653 4.6185 24.3652 4.12942 23.8761C3.64034 23.387 3.33466 22.9201 3.08456 22.2643C2.8956 21.7697 2.66217 21.0305 2.60103 19.6633C2.53434 18.1849 2.51767 17.7459 2.51767 14.0055C2.51767 10.2651 2.53434 9.82606 2.60103 8.3477C2.66217 6.98049 2.89004 6.2413 3.08456 5.74666C3.34022 5.09085 3.64034 4.624 4.12942 4.13491C4.6185 3.64583 5.08536 3.34015 5.74117 3.09005C6.23581 2.90109 6.975 2.66766 8.34221 2.60653C9.82057 2.53428 10.2652 2.52316 14 2.52316Z" fill="white"/>
</g>
<path id="Vector_2" d="M13.9998 6.81375C10.0316 6.81375 6.80811 10.0317 6.80811 14.0055C6.80811 17.9793 10.026 21.1972 13.9998 21.1972C17.9736 21.1972 21.1916 17.9793 21.1916 14.0055C21.1916 10.0317 17.9736 6.81375 13.9998 6.81375ZM13.9998 18.6685C11.421 18.6685 9.33133 16.5787 9.33133 13.9999C9.33133 11.4211 11.421 9.33142 13.9998 9.33142C16.5786 9.33142 18.6684 11.4211 18.6684 13.9999C18.6684 16.5787 16.5786 18.6685 13.9998 18.6685Z" fill="#0E0803"/>
<path id="Vector_3" d="M21.4753 8.2032C22.4023 8.2032 23.1538 7.45174 23.1538 6.52476C23.1538 5.59778 22.4023 4.84631 21.4753 4.84631C20.5483 4.84631 19.7969 5.59778 19.7969 6.52476C19.7969 7.45174 20.5483 8.2032 21.4753 8.2032Z" fill="#0E0803"/>
</g>
<defs>
<clipPath id="clip0_2058_618">
<rect width="28" height="28" fill="white"/>
</clipPath>
</defs>
</svg>