<svg xmlns:xlink="http://www.w3.org/1999/xlink" xmlns="http://www.w3.org/2000/svg" width="28" height="28" viewBox="0 0 28 28" fill="none">
<g id="LinkedIn" clip-path="url(#clip0_2058_622)">
<path id="Vector" d="M25.9331 -6.10352e-05H2.06694C1.51876 -6.10352e-05 0.993022 0.217706 0.605394 0.605333C0.217767 0.992961 0 1.5187 0 2.06688V25.933C0 26.4812 0.217767 27.0069 0.605394 27.3945C0.993022 27.7822 1.51876 27.9999 2.06694 27.9999H25.9331C26.4812 27.9999 27.007 27.7822 27.3946 27.3945C27.7822 27.0069 28 26.4812 28 25.933V2.06688C28 1.5187 27.7822 0.992961 27.3946 0.605333C27.007 0.217706 26.4812 -6.10352e-05 25.9331 -6.10352e-05ZM8.34556 23.8524H4.13583V10.4805H8.34556V23.8524ZM6.23778 8.62744C5.76026 8.62475 5.29423 8.48067 4.89852 8.21337C4.50281 7.94608 4.19515 7.56756 4.01436 7.12558C3.83357 6.68359 3.78776 6.19796 3.8827 5.72997C3.97765 5.26198 4.2091 4.83259 4.54785 4.49602C4.88659 4.15944 5.31745 3.93075 5.78604 3.83881C6.25464 3.74687 6.73996 3.7958 7.18078 3.97942C7.62159 4.16305 7.99813 4.47313 8.26288 4.87055C8.52762 5.26797 8.66871 5.73491 8.66833 6.21244C8.67284 6.53215 8.61293 6.84948 8.49218 7.14554C8.37143 7.4416 8.19231 7.71032 7.9655 7.93568C7.73869 8.16104 7.46882 8.33844 7.17199 8.45728C6.87517 8.57613 6.55745 8.634 6.23778 8.62744ZM23.8622 23.8641H19.6544V16.5588C19.6544 14.4044 18.7386 13.7394 17.5564 13.7394C16.3081 13.7394 15.0831 14.6805 15.0831 16.6133V23.8641H10.8733V10.4902H14.9217V12.3433H14.9761C15.3825 11.5208 16.8058 10.1149 18.9778 10.1149C21.3267 10.1149 23.8642 11.5091 23.8642 15.5924L23.8622 23.8641Z" fill="white"/>
</g>
<defs>
<clipPath id="clip0_2058_622">
<rect width="28" height="28" fill="white"/>
</clipPath>
</defs>
</svg>