<svg xmlns:xlink="http://www.w3.org/1999/xlink" xmlns="http://www.w3.org/2000/svg" width="512" height="512" viewBox="0 0 512 512" fill="none">
<path d="M492.044 106.769C473.562 84.7989 439.44 75.8379 374.274 75.8379H137.721C71.064 75.8379 36.363 85.3779 17.951 108.768C0 131.572 0 165.174 0 211.681V300.321C0 390.418 21.299 436.163 137.721 436.163H374.275C430.787 436.163 462.101 428.255 482.36 408.867C503.136 388.985 512 356.522 512 300.321V211.681C512 162.636 510.611 128.836 492.044 106.769ZM328.706 268.238L221.288 324.378C218.887 325.633 216.26 326.256 213.638 326.256C210.668 326.256 207.705 325.457 205.081 323.868C200.139 320.874 197.122 315.517 197.122 309.74V197.82C197.122 192.053 200.131 186.701 205.063 183.705C209.996 180.709 216.132 180.504 221.25 183.163L328.668 238.941C334.133 241.778 337.565 247.42 337.573 253.576C337.58 259.738 334.163 265.388 328.706 268.238Z" fill="white"/>
</svg>