<svg xmlns:xlink="http://www.w3.org/1999/xlink" xmlns="http://www.w3.org/2000/svg" width="30" height="30" viewBox="0 0 30 30" fill="none">
<g id="TikTok" clip-path="url(#clip0_2058_624)">
<path id="Vector" d="M21.5502 -6.10352e-05H16.371V20.4347C16.371 22.8695 14.379 24.8695 11.9001 24.8695C9.42116 24.8695 7.42918 22.8695 7.42918 20.4347C7.42918 18.0434 9.3769 16.0869 11.7673 15.9999V10.8695C6.49958 10.9564 2.25 15.1739 2.25 20.4347C2.25 25.7391 6.58811 29.9999 11.9444 29.9999C17.3006 29.9999 21.6387 25.6956 21.6387 20.4347V9.95644C23.5864 11.3478 25.9768 12.1739 28.5 12.2174V7.0869C24.6046 6.95646 21.5502 3.82602 21.5502 -6.10352e-05Z" fill="white"/>
</g>
<defs>
<clipPath id="clip0_2058_624">
<rect width="30" height="30" fill="white"/>
</clipPath>
</defs>
</svg>