<svg xmlns:xlink="http://www.w3.org/1999/xlink" xmlns="http://www.w3.org/2000/svg" width="30" height="30" viewBox="0 0 30 30" fill="none">
<g id="Twitter">
<path id="Vector" d="M26.3213 8.97588C26.3329 9.23988 26.3329 9.49188 26.3329 9.75588C26.3444 17.7599 20.4639 26.9999 9.70979 26.9999C6.53798 26.9999 3.42405 26.0519 0.75 24.2759C1.21304 24.3359 1.67608 24.3599 2.13911 24.3599C4.76686 24.3599 7.32514 23.4479 9.39724 21.7559C6.89683 21.7079 4.6974 20.0159 3.93339 17.5439C4.81316 17.7239 5.71608 17.6879 6.5727 17.4359C3.85236 16.8839 1.89602 14.3999 1.88444 11.5079C1.88444 11.4839 1.88444 11.4599 1.88444 11.4359C2.69476 11.9039 3.60926 12.1679 4.53534 12.1919C1.97705 10.4159 1.17831 6.87587 2.72949 4.10387C5.70451 7.89588 10.0802 10.1879 14.7801 10.4399C14.3054 8.33988 14.9537 6.13187 16.4701 4.64387C18.8201 2.35186 22.5244 2.47186 24.747 4.90787C26.055 4.64387 27.3168 4.13987 28.4628 3.43186C28.0229 4.83587 27.1084 6.02387 25.893 6.77987C27.0506 6.63587 28.185 6.31187 29.25 5.83187C28.4628 7.05588 27.4673 8.11188 26.3213 8.97588Z" fill="white"/>
</g>
</svg>